<?xml version="1.0" encoding="UTF-8" standalone="no"?><!DOCTYPE svg PUBLIC "-//W3C//DTD SVG 1.1//EN" "http://www.w3.org/Graphics/SVG/1.1/DTD/svg11.dtd"><svg width="100%" height="100%" viewBox="0 0 32 32" version="1.1" xmlns="http://www.w3.org/2000/svg" xmlns:xlink="http://www.w3.org/1999/xlink" xml:space="preserve" xmlns:serif="http://www.serif.com/" style="fill-rule:evenodd;clip-rule:evenodd;stroke-linejoin:round;stroke-miterlimit:2;"><path d="M21.542,8.405c0.51,-0.105 1.039,-0.159 1.581,-0.159c4.347,-0 7.877,3.529 7.877,7.877c-0,4.347 -3.53,7.877 -7.877,7.877l-8.638,-0c0,-0 -4.056,-0.071 -4.67,-0.187c-1.181,-0.222 -2.295,-0.636 -3.307,-1.208c-3.287,-1.859 -5.508,-5.387 -5.508,-9.43c-0,-5.974 4.85,-10.824 10.825,-10.824c4.262,-0 7.952,2.469 9.717,6.054Z" style="fill:url(#_Linear1);"/><path d="M15,26.586l0,-9.586c-0,-0.552 0.448,-1 1,-1c0.552,-0 1,0.448 1,1l-0,9.586l2.293,-2.293c0.39,-0.39 1.024,-0.39 1.414,-0c0.39,0.39 0.39,1.024 0,1.414l-4,4c-0.39,0.391 -1.024,0.391 -1.414,0l-4,-4c-0.39,-0.39 -0.39,-1.024 -0,-1.414c0.39,-0.39 1.024,-0.39 1.414,-0l2.293,2.293Z" style="fill:url(#_Linear2);"/><defs><linearGradient id="_Linear1" x1="0" y1="0" x2="1" y2="0" gradientUnits="userSpaceOnUse" gradientTransform="matrix(1.66399e-15,27.1751,-27.1751,1.66399e-15,15,2.82491)"><stop offset="0" style="stop-color:#87d0fd;stop-opacity:1"/><stop offset="1" style="stop-color:#049fff;stop-opacity:1"/></linearGradient><linearGradient id="_Linear2" x1="0" y1="0" x2="1" y2="0" gradientUnits="userSpaceOnUse" gradientTransform="matrix(5.14352e-15,84,-84,5.14352e-15,66,16)"><stop offset="0" style="stop-color:#eff4fa;stop-opacity:1"/><stop offset="1" style="stop-color:#68a4ec;stop-opacity:1"/></linearGradient></defs></svg>