<?xml version="1.0" encoding="UTF-8" standalone="no"?><!DOCTYPE svg PUBLIC "-//W3C//DTD SVG 1.1//EN" "http://www.w3.org/Graphics/SVG/1.1/DTD/svg11.dtd"><svg width="100%" height="100%" viewBox="0 0 32 32" version="1.1" xmlns="http://www.w3.org/2000/svg" xmlns:xlink="http://www.w3.org/1999/xlink" xml:space="preserve" xmlns:serif="http://www.serif.com/" style="fill-rule:evenodd;clip-rule:evenodd;stroke-linejoin:round;stroke-miterlimit:2;"><path d="M30.706,6c0,-1.326 -0.526,-2.598 -1.464,-3.536c-0.938,-0.937 -2.21,-1.464 -3.536,-1.464c-5.196,0 -14.216,0 -19.412,0c-1.326,-0 -2.598,0.527 -3.536,1.464c-0.938,0.938 -1.464,2.21 -1.464,3.536c-0,5.322 -0,14.678 -0,20c-0,1.326 0.526,2.598 1.464,3.536c0.938,0.937 2.21,1.464 3.536,1.464c5.196,-0 14.216,-0 19.412,-0c1.326,0 2.598,-0.527 3.536,-1.464c0.938,-0.938 1.464,-2.21 1.464,-3.536l0,-20Z" style="fill:url(#_Linear1);"/><path d="M16.493,16l4.378,4.379c1.171,1.17 1.171,3.072 0,4.242c-1.17,1.171 -3.072,1.171 -4.242,0c-0,0 -6.5,-6.5 -6.5,-6.5c-1.172,-1.171 -1.172,-3.071 -0,-4.242c-0,-0 6.5,-6.5 6.5,-6.5c1.17,-1.171 3.072,-1.171 4.242,-0c1.171,1.17 1.171,3.072 0,4.242l-4.378,4.379Z" style="fill:url(#_Linear2);"/><defs><linearGradient id="_Linear1" x1="0" y1="0" x2="1" y2="0" gradientUnits="userSpaceOnUse" gradientTransform="matrix(1.85228e-15,30.25,-30.25,1.85228e-15,16,1)"><stop offset="0" style="stop-color:#87d0fd;stop-opacity:1"/><stop offset="1" style="stop-color:#049fff;stop-opacity:1"/></linearGradient><linearGradient id="_Linear2" x1="0" y1="0" x2="1" y2="0" gradientUnits="userSpaceOnUse" gradientTransform="matrix(5.70992e-15,93.25,-93.25,5.70992e-15,16,6)"><stop offset="0" style="stop-color:#eff4fa;stop-opacity:1"/><stop offset="1" style="stop-color:#68a4ec;stop-opacity:1"/></linearGradient></defs></svg>