<?xml version="1.0" encoding="UTF-8" standalone="no"?><!DOCTYPE svg PUBLIC "-//W3C//DTD SVG 1.1//EN" "http://www.w3.org/Graphics/SVG/1.1/DTD/svg11.dtd"><svg width="100%" height="100%" viewBox="0 0 32 32" version="1.1" xmlns="http://www.w3.org/2000/svg" xmlns:xlink="http://www.w3.org/1999/xlink" xml:space="preserve" xmlns:serif="http://www.serif.com/" style="fill-rule:evenodd;clip-rule:evenodd;stroke-linejoin:round;stroke-miterlimit:2;"><path d="M31,6c0,-1.326 -0.527,-2.598 -1.464,-3.536c-0.938,-0.937 -2.21,-1.464 -3.536,-1.464c-5.322,0 -14.678,0 -20,0c-1.326,-0 -2.598,0.527 -3.536,1.464c-0.937,0.938 -1.464,2.21 -1.464,3.536c-0,5.322 -0,14.678 -0,20c-0,1.326 0.527,2.598 1.464,3.536c0.938,0.937 2.21,1.464 3.536,1.464c5.322,-0 14.678,-0 20,-0c1.326,0 2.598,-0.527 3.536,-1.464c0.937,-0.938 1.464,-2.21 1.464,-3.536l-0,-20Z" style="fill:url(#_Linear1);"/><path d="M23.203,13.456l-6.226,-3.891c-0.925,-0.579 -2.091,-0.609 -3.044,-0.08c-0.954,0.528 -1.546,1.533 -1.546,2.623c-0,2.358 -0,5.426 -0,7.784c-0,1.09 0.592,2.095 1.546,2.623c0.953,0.529 2.119,0.499 3.044,-0.08c1.921,-1.2 4.375,-2.734 6.226,-3.891c0.877,-0.548 1.41,-1.51 1.41,-2.544c0,-1.034 -0.533,-1.996 -1.41,-2.544Z" style="fill:url(#_Linear2);"/><path d="M9.25,10.5l0,11c-0,0.552 0.448,1 1,1c0.552,0 1,-0.448 1,-1l0,-11c-0,-0.552 -0.448,-1 -1,-1c-0.552,0 -1,0.448 -1,1Z" style="fill:url(#_Linear3);"/><defs><linearGradient id="_Linear1" x1="0" y1="0" x2="1" y2="0" gradientUnits="userSpaceOnUse" gradientTransform="matrix(1.83697e-15,30,-30,1.83697e-15,16,1)"><stop offset="0" style="stop-color:#87d0fd;stop-opacity:1"/><stop offset="1" style="stop-color:#049fff;stop-opacity:1"/></linearGradient><linearGradient id="_Linear2" x1="0" y1="0" x2="1" y2="0" gradientUnits="userSpaceOnUse" gradientTransform="matrix(4.56181e-15,74.5,-74.5,4.56181e-15,15,9)"><stop offset="0" style="stop-color:#eff4fa;stop-opacity:1"/><stop offset="1" style="stop-color:#68a4ec;stop-opacity:1"/></linearGradient><linearGradient id="_Linear3" x1="0" y1="0" x2="1" y2="0" gradientUnits="userSpaceOnUse" gradientTransform="matrix(1.80346e-15,29.4528,-29.4528,1.80346e-15,15,9)"><stop offset="0" style="stop-color:#eff4fa;stop-opacity:1"/><stop offset="1" style="stop-color:#68a4ec;stop-opacity:1"/></linearGradient></defs></svg>