<?xml version="1.0" encoding="UTF-8" standalone="no"?><!DOCTYPE svg PUBLIC "-//W3C//DTD SVG 1.1//EN" "http://www.w3.org/Graphics/SVG/1.1/DTD/svg11.dtd"><svg width="100%" height="100%" viewBox="0 0 32 32" version="1.1" xmlns="http://www.w3.org/2000/svg" xmlns:xlink="http://www.w3.org/1999/xlink" xml:space="preserve" xmlns:serif="http://www.serif.com/" style="fill-rule:evenodd;clip-rule:evenodd;stroke-linejoin:round;stroke-miterlimit:2;"><path d="M23.5,6.625c-0,-1.061 -0.421,-2.078 -1.172,-2.828c-0.75,-0.751 -1.767,-1.172 -2.828,-1.172c-2.102,0 -4.898,0 -7,0c-1.061,-0 -2.078,0.421 -2.828,1.172c-0.751,0.75 -1.172,1.767 -1.172,2.828c0,1.287 0,2.5 0,2.5c0,0.552 0.448,1 1,1l13,0c0.552,0 1,-0.448 1,-1l-0,-2.5Zm-2,-0c-0,-0.53 -0.211,-1.039 -0.586,-1.414c-0.375,-0.375 -0.884,-0.586 -1.414,-0.586c-2.102,0 -4.898,0 -7,0c-0.53,-0 -1.039,0.211 -1.414,0.586c-0.375,0.375 -0.586,0.884 -0.586,1.414l-0,1.5l11,0l0,-1.5Z" style="fill:url(#_Linear1);"/><path d="M31,12.125c-0,-2.209 -1.791,-4 -4,-4c-5.382,0 -16.618,0 -22,0c-2.209,0 -4,1.791 -4,4c-0,3.611 -0,9.639 -0,13.25c0,2.209 1.791,4 4,4c5.382,-0 16.618,-0 22,-0c2.209,-0 4,-1.791 4,-4c0,-3.611 0,-9.639 -0,-13.25Z" style="fill:url(#_Linear2);"/><path d="M13,14.625c-0,-0.552 -0.448,-1 -1,-1l-5,0c-0.552,0 -1,0.448 -1,1l0,2.375c-0,0.928 0.369,1.818 1.025,2.475c0.656,0.656 1.547,1.025 2.475,1.025c0.928,-0 1.819,-0.369 2.475,-1.025c0.656,-0.657 1.025,-1.547 1.025,-2.475c-0,-1.198 -0,-2.375 -0,-2.375Zm-2,1l-3,0l-0,1.375c-0,0.398 0.158,0.779 0.439,1.061c0.282,0.281 0.663,0.439 1.061,0.439c0.398,-0 0.779,-0.158 1.061,-0.439c0.281,-0.282 0.439,-0.663 0.439,-1.061l-0,-1.375Z" style="fill:url(#_Linear3);"/><path d="M26,14.625c0,-0.552 -0.448,-1 -1,-1l-5,0c-0.552,0 -1,0.448 -1,1l-0,2.375c-0,0.928 0.369,1.818 1.025,2.475c0.656,0.656 1.547,1.025 2.475,1.025c0.928,-0 1.819,-0.369 2.475,-1.025c0.656,-0.657 1.025,-1.547 1.025,-2.475c-0,-1.198 -0,-2.375 -0,-2.375Zm-2,1l-3,0l-0,1.375c-0,0.398 0.158,0.779 0.439,1.061c0.282,0.281 0.663,0.439 1.061,0.439c0.398,-0 0.779,-0.158 1.061,-0.439c0.281,-0.282 0.439,-0.663 0.439,-1.061l-0,-1.375Z" style="fill:url(#_Linear4);"/><rect x="1" y="13.625" width="30" height="2" style="fill:url(#_Linear5);"/><defs><linearGradient id="_Linear1" x1="0" y1="0" x2="1" y2="0" gradientUnits="userSpaceOnUse" gradientTransform="matrix(1.80635e-15,29.5,-29.5,1.80635e-15,16,2.5)"><stop offset="0" style="stop-color:#fc9f62;stop-opacity:1"/><stop offset="1" style="stop-color:#e55b00;stop-opacity:1"/></linearGradient><linearGradient id="_Linear2" x1="0" y1="0" x2="1" y2="0" gradientUnits="userSpaceOnUse" gradientTransform="matrix(1.46192e-15,23.875,-23.875,1.46192e-15,16,8.125)"><stop offset="0" style="stop-color:#87d0fd;stop-opacity:1"/><stop offset="1" style="stop-color:#049fff;stop-opacity:1"/></linearGradient><linearGradient id="_Linear3" x1="0" y1="0" x2="1" y2="0" gradientUnits="userSpaceOnUse" gradientTransform="matrix(1.12514e-15,18.375,-18.375,1.12514e-15,16,13.625)"><stop offset="0" style="stop-color:#eff4fa;stop-opacity:1"/><stop offset="1" style="stop-color:#68a4ec;stop-opacity:1"/></linearGradient><linearGradient id="_Linear4" x1="0" y1="0" x2="1" y2="0" gradientUnits="userSpaceOnUse" gradientTransform="matrix(1.12514e-15,18.375,-18.375,1.12514e-15,16,13.625)"><stop offset="0" style="stop-color:#eff4fa;stop-opacity:1"/><stop offset="1" style="stop-color:#68a4ec;stop-opacity:1"/></linearGradient><linearGradient id="_Linear5" x1="0" y1="0" x2="1" y2="0" gradientUnits="userSpaceOnUse" gradientTransform="matrix(1.12514e-15,18.375,-18.375,1.12514e-15,16,13.625)"><stop offset="0" style="stop-color:#eff4fa;stop-opacity:1"/><stop offset="1" style="stop-color:#68a4ec;stop-opacity:1"/></linearGradient></defs></svg>