<?xml version="1.0" encoding="UTF-8" standalone="no"?><!DOCTYPE svg PUBLIC "-//W3C//DTD SVG 1.1//EN" "http://www.w3.org/Graphics/SVG/1.1/DTD/svg11.dtd"><svg width="100%" height="100%" viewBox="0 0 32 32" version="1.1" xmlns="http://www.w3.org/2000/svg" xmlns:xlink="http://www.w3.org/1999/xlink" xml:space="preserve" xmlns:serif="http://www.serif.com/" style="fill-rule:evenodd;clip-rule:evenodd;stroke-linejoin:round;stroke-miterlimit:2;"><path d="M31,6c0,-1.326 -0.527,-2.598 -1.464,-3.536c-0.938,-0.937 -2.21,-1.464 -3.536,-1.464c-5.322,0 -14.678,0 -20,0c-1.326,-0 -2.598,0.527 -3.536,1.464c-0.937,0.938 -1.464,2.21 -1.464,3.536c-0,5.322 -0,14.678 -0,20c-0,1.326 0.527,2.598 1.464,3.536c0.938,0.937 2.21,1.464 3.536,1.464c5.322,-0 14.678,-0 20,-0c1.326,0 2.598,-0.527 3.536,-1.464c0.937,-0.938 1.464,-2.21 1.464,-3.536l0,-20Z" style="fill:url(#_Linear1);"/><path d="M16,17.5c-3.127,0 -5.895,0.697 -7.614,1.73c-1.434,0.862 -2.183,1.996 -2.183,3.145c-0,1.149 0.749,2.283 2.183,3.145c1.719,1.033 4.487,1.73 7.614,1.73c3.127,0 5.895,-0.697 7.614,-1.73c1.434,-0.862 2.183,-1.996 2.183,-3.145c0,-1.149 -0.749,-2.283 -2.183,-3.145c-1.719,-1.033 -4.487,-1.73 -7.614,-1.73Zm0,-12.5c-3.106,0 -5.629,2.522 -5.629,5.629c0,3.106 2.523,5.628 5.629,5.628c3.106,0 5.629,-2.522 5.629,-5.628c-0,-3.107 -2.523,-5.629 -5.629,-5.629Z" style="fill:url(#_Linear2);"/><defs><linearGradient id="_Linear1" x1="0" y1="0" x2="1" y2="0" gradientUnits="userSpaceOnUse" gradientTransform="matrix(1.91307e-15,31.2429,-31.2429,1.91307e-15,16.5,1)"><stop offset="0" style="stop-color:#87d0fd;stop-opacity:1"/><stop offset="1" style="stop-color:#049fff;stop-opacity:1"/></linearGradient><linearGradient id="_Linear2" x1="0" y1="0" x2="1" y2="0" gradientUnits="userSpaceOnUse" gradientTransform="matrix(4.65366e-15,76,-76,4.65366e-15,16,5)"><stop offset="0" style="stop-color:#eff4fa;stop-opacity:1"/><stop offset="1" style="stop-color:#68a4ec;stop-opacity:1"/></linearGradient></defs></svg>