<?xml version="1.0" encoding="UTF-8" standalone="no"?><!DOCTYPE svg PUBLIC "-//W3C//DTD SVG 1.1//EN" "http://www.w3.org/Graphics/SVG/1.1/DTD/svg11.dtd"><svg width="100%" height="100%" viewBox="0 0 32 32" version="1.1" xmlns="http://www.w3.org/2000/svg" xmlns:xlink="http://www.w3.org/1999/xlink" xml:space="preserve" xmlns:serif="http://www.serif.com/" style="fill-rule:evenodd;clip-rule:evenodd;stroke-linejoin:round;stroke-miterlimit:2;"><path d="M19.25,6c0,-0.552 -0.448,-1 -1,-1l-4.5,0c-0.552,0 -1,0.448 -1,1l-0,20c-0,0.552 0.448,1 1,1l4.5,0c0.552,0 1,-0.448 1,-1l0,-20Z" style="fill:url(#_Linear1);"/><path d="M14.75,5c-0,-2.209 -1.791,-4 -4,-4c-1.265,0 -2.735,0 -4,0c-2.209,-0 -4,1.791 -4,4c0,5.382 0,16.618 0,22c0,2.209 1.791,4 4,4c1.265,-0 2.735,-0 4,-0c2.209,0 4,-1.791 4,-4l-0,-22Z" style="fill:url(#_Linear2);"/><path d="M29.25,5c-0,-2.209 -1.791,-4 -4,-4c-1.265,0 -2.735,0 -4,0c-2.209,-0 -4,1.791 -4,4c0,5.382 0,16.618 0,22c0,2.209 1.791,4 4,4c1.265,-0 2.735,-0 4,-0c2.209,0 4,-1.791 4,-4l-0,-22Z" style="fill:url(#_Linear3);"/><path d="M22.25,6l0,9.375c-0,0.552 0.448,1 1,1c0.552,0 1,-0.448 1,-1l0,-9.375c-0,-0.552 -0.448,-1 -1,-1c-0.552,0 -1,0.448 -1,1Z" style="fill:url(#_Linear4);"/><path d="M7.75,6l0,9.375c-0,0.552 0.448,1 1,1c0.552,0 1,-0.448 1,-1l0,-9.375c-0,-0.552 -0.448,-1 -1,-1c-0.552,0 -1,0.448 -1,1Z" style="fill:url(#_Linear5);"/><circle cx="23.25" cy="18.875" r="1" style="fill:url(#_Linear6);"/><circle cx="8.75" cy="18.875" r="1" style="fill:url(#_Linear7);"/><circle cx="23.25" cy="22.375" r="1" style="fill:url(#_Linear8);"/><circle cx="8.75" cy="22.375" r="1" style="fill:url(#_Linear9);"/><circle cx="23.25" cy="25.875" r="1" style="fill:url(#_Linear10);"/><circle cx="8.75" cy="25.875" r="1" style="fill:url(#_Linear11);"/><defs><linearGradient id="_Linear1" x1="0" y1="0" x2="1" y2="0" gradientUnits="userSpaceOnUse" gradientTransform="matrix(2.77842e-15,45.375,-45.375,2.77842e-15,16.0006,4.625)"><stop offset="0" style="stop-color:#eff4fa;stop-opacity:1"/><stop offset="1" style="stop-color:#68a4ec;stop-opacity:1"/></linearGradient><linearGradient id="_Linear2" x1="0" y1="0" x2="1" y2="0" gradientUnits="userSpaceOnUse" gradientTransform="matrix(1.8982e-15,31,-31,1.8982e-15,16,1)"><stop offset="0" style="stop-color:#87d0fd;stop-opacity:1"/><stop offset="1" style="stop-color:#049fff;stop-opacity:1"/></linearGradient><linearGradient id="_Linear3" x1="0" y1="0" x2="1" y2="0" gradientUnits="userSpaceOnUse" gradientTransform="matrix(1.8982e-15,31,-31,1.8982e-15,16,1)"><stop offset="0" style="stop-color:#87d0fd;stop-opacity:1"/><stop offset="1" style="stop-color:#049fff;stop-opacity:1"/></linearGradient><linearGradient id="_Linear4" x1="0" y1="0" x2="1" y2="0" gradientUnits="userSpaceOnUse" gradientTransform="matrix(2.75546e-15,45,-45,2.75546e-15,8.75,5)"><stop offset="0" style="stop-color:#fc9f62;stop-opacity:1"/><stop offset="1" style="stop-color:#e55b00;stop-opacity:1"/></linearGradient><linearGradient id="_Linear5" x1="0" y1="0" x2="1" y2="0" gradientUnits="userSpaceOnUse" gradientTransform="matrix(2.75546e-15,45,-45,2.75546e-15,8.75,5)"><stop offset="0" style="stop-color:#fc9f62;stop-opacity:1"/><stop offset="1" style="stop-color:#e55b00;stop-opacity:1"/></linearGradient><linearGradient id="_Linear6" x1="0" y1="0" x2="1" y2="0" gradientUnits="userSpaceOnUse" gradientTransform="matrix(1.65327e-15,27,-27,1.65327e-15,23.25,5)"><stop offset="0" style="stop-color:#fc9f62;stop-opacity:1"/><stop offset="1" style="stop-color:#e55b00;stop-opacity:1"/></linearGradient><linearGradient id="_Linear7" x1="0" y1="0" x2="1" y2="0" gradientUnits="userSpaceOnUse" gradientTransform="matrix(1.65327e-15,27,-27,1.65327e-15,8.75,5)"><stop offset="0" style="stop-color:#fc9f62;stop-opacity:1"/><stop offset="1" style="stop-color:#e55b00;stop-opacity:1"/></linearGradient><linearGradient id="_Linear8" x1="0" y1="0" x2="1" y2="0" gradientUnits="userSpaceOnUse" gradientTransform="matrix(1.65327e-15,27,-27,1.65327e-15,23.25,5)"><stop offset="0" style="stop-color:#fc9f62;stop-opacity:1"/><stop offset="1" style="stop-color:#e55b00;stop-opacity:1"/></linearGradient><linearGradient id="_Linear9" x1="0" y1="0" x2="1" y2="0" gradientUnits="userSpaceOnUse" gradientTransform="matrix(1.65327e-15,27,-27,1.65327e-15,8.75,5)"><stop offset="0" style="stop-color:#fc9f62;stop-opacity:1"/><stop offset="1" style="stop-color:#e55b00;stop-opacity:1"/></linearGradient><linearGradient id="_Linear10" x1="0" y1="0" x2="1" y2="0" gradientUnits="userSpaceOnUse" gradientTransform="matrix(1.65327e-15,27,-27,1.65327e-15,23.25,5)"><stop offset="0" style="stop-color:#fc9f62;stop-opacity:1"/><stop offset="1" style="stop-color:#e55b00;stop-opacity:1"/></linearGradient><linearGradient id="_Linear11" x1="0" y1="0" x2="1" y2="0" gradientUnits="userSpaceOnUse" gradientTransform="matrix(1.65327e-15,27,-27,1.65327e-15,8.75,5)"><stop offset="0" style="stop-color:#fc9f62;stop-opacity:1"/><stop offset="1" style="stop-color:#e55b00;stop-opacity:1"/></linearGradient></defs></svg>