<?xml version="1.0" encoding="UTF-8" standalone="no"?><!DOCTYPE svg PUBLIC "-//W3C//DTD SVG 1.1//EN" "http://www.w3.org/Graphics/SVG/1.1/DTD/svg11.dtd"><svg width="100%" height="100%" viewBox="0 0 32 32" version="1.1" xmlns="http://www.w3.org/2000/svg" xmlns:xlink="http://www.w3.org/1999/xlink" xml:space="preserve" xmlns:serif="http://www.serif.com/" style="fill-rule:evenodd;clip-rule:evenodd;stroke-linejoin:round;stroke-miterlimit:2;"><path d="M30.706,6c0,-1.326 -0.526,-2.598 -1.464,-3.536c-0.938,-0.937 -2.21,-1.464 -3.536,-1.464c-5.196,0 -14.216,0 -19.412,0c-1.326,-0 -2.598,0.527 -3.536,1.464c-0.938,0.938 -1.464,2.21 -1.464,3.536c-0,5.322 -0,14.678 -0,20c-0,1.326 0.526,2.598 1.464,3.536c0.938,0.937 2.21,1.464 3.536,1.464c5.196,-0 14.216,-0 19.412,-0c1.326,0 2.598,-0.527 3.536,-1.464c0.938,-0.938 1.464,-2.21 1.464,-3.536l0,-20Z" style="fill:url(#_Linear1);"/><path d="M19.227,20.586l2.748,-2.748c0.39,-0.39 1.024,-0.39 1.414,0c0.39,0.391 0.39,1.024 -0,1.415c-0,-0 -4.455,4.454 -4.455,4.454c-0.286,0.286 -0.716,0.372 -1.089,0.217c-0.374,-0.155 -0.618,-0.52 -0.618,-0.924l0,-14c0,-0.552 0.448,-1 1,-1c0.552,0 1,0.448 1,1l0,11.586Z" style="fill:url(#_Linear2);"/><path d="M12.773,11.414l-2.748,2.748c-0.39,0.39 -1.024,0.39 -1.414,-0c-0.39,-0.391 -0.39,-1.024 0,-1.415c0,0 4.455,-4.454 4.455,-4.454c0.286,-0.286 0.716,-0.372 1.089,-0.217c0.374,0.155 0.618,0.52 0.618,0.924l-0,14c-0,0.552 -0.448,1 -1,1c-0.552,0 -1,-0.448 -1,-1l-0,-11.586Z" style="fill:url(#_Linear3);"/><defs><linearGradient id="_Linear1" x1="0" y1="0" x2="1" y2="0" gradientUnits="userSpaceOnUse" gradientTransform="matrix(1.8982e-15,31,-31,1.8982e-15,15.25,1)"><stop offset="0" style="stop-color:#87d0fd;stop-opacity:1"/><stop offset="1" style="stop-color:#049fff;stop-opacity:1"/></linearGradient><linearGradient id="_Linear2" x1="0" y1="0" x2="1" y2="0" gradientUnits="userSpaceOnUse" gradientTransform="matrix(1.46958e-15,24,-24,1.46958e-15,15.9998,8)"><stop offset="0" style="stop-color:#eff4fa;stop-opacity:1"/><stop offset="1" style="stop-color:#68a4ec;stop-opacity:1"/></linearGradient><linearGradient id="_Linear3" x1="0" y1="0" x2="1" y2="0" gradientUnits="userSpaceOnUse" gradientTransform="matrix(1.46958e-15,24,-24,1.46958e-15,15.9998,8)"><stop offset="0" style="stop-color:#eff4fa;stop-opacity:1"/><stop offset="1" style="stop-color:#68a4ec;stop-opacity:1"/></linearGradient></defs></svg>