<?xml version="1.0" encoding="UTF-8" standalone="no"?><!DOCTYPE svg PUBLIC "-//W3C//DTD SVG 1.1//EN" "http://www.w3.org/Graphics/SVG/1.1/DTD/svg11.dtd"><svg width="100%" height="100%" viewBox="0 0 32 32" version="1.1" xmlns="http://www.w3.org/2000/svg" xmlns:xlink="http://www.w3.org/1999/xlink" xml:space="preserve" xmlns:serif="http://www.serif.com/" style="fill-rule:evenodd;clip-rule:evenodd;stroke-linejoin:round;stroke-miterlimit:2;"><circle cx="8.25" cy="8.25" r="7.25" style="fill:url(#_Linear1);"/><path d="M31,5c0,-1.061 -0.421,-2.078 -1.172,-2.828c-0.75,-0.751 -1.767,-1.172 -2.828,-1.172c-1.968,0 -4.532,0 -6.5,0c-1.061,-0 -2.078,0.421 -2.828,1.172c-0.751,0.75 -1.172,1.767 -1.172,2.828c-0,1.968 -0,4.532 -0,6.5c-0,1.061 0.421,2.078 1.172,2.828c0.75,0.751 1.767,1.172 2.828,1.172c1.968,0 4.532,0 6.5,0c1.061,0 2.078,-0.421 2.828,-1.172c0.751,-0.75 1.172,-1.767 1.172,-2.828l-0,-6.5Z" style="fill:url(#_Linear2);"/><path d="M15.5,20.5c0,-1.061 -0.421,-2.078 -1.172,-2.828c-0.75,-0.751 -1.767,-1.172 -2.828,-1.172c-1.968,-0 -4.532,-0 -6.5,-0c-1.061,-0 -2.078,0.421 -2.828,1.172c-0.751,0.75 -1.172,1.767 -1.172,2.828c0,1.968 0,4.532 0,6.5c-0,1.061 0.421,2.078 1.172,2.828c0.75,0.751 1.767,1.172 2.828,1.172c1.968,-0 4.532,-0 6.5,-0c1.061,0 2.078,-0.421 2.828,-1.172c0.751,-0.75 1.172,-1.767 1.172,-2.828l0,-6.5Z" style="fill:url(#_Linear3);"/><path d="M31,20.5c0,-1.061 -0.421,-2.078 -1.172,-2.828c-0.75,-0.751 -1.767,-1.172 -2.828,-1.172c-1.968,-0 -4.532,-0 -6.5,-0c-1.061,-0 -2.078,0.421 -2.828,1.172c-0.751,0.75 -1.172,1.767 -1.172,2.828c-0,1.968 -0,4.532 -0,6.5c-0,1.061 0.421,2.078 1.172,2.828c0.75,0.751 1.767,1.172 2.828,1.172c1.968,-0 4.532,-0 6.5,-0c1.061,0 2.078,-0.421 2.828,-1.172c0.751,-0.75 1.172,-1.767 1.172,-2.828l-0,-6.5Z" style="fill:url(#_Linear4);"/><path d="M7.25,1.069c0.327,-0.046 0.661,-0.069 1,-0.069c0.339,0 0.673,0.023 1,0.069l0,14.362c-0.327,0.046 -0.661,0.069 -1,0.069c-0.339,0 -0.673,-0.023 -1,-0.069l0,-14.362Z" style="fill:url(#_Linear5);"/><path d="M15.431,7.25c0.046,0.327 0.069,0.661 0.069,1c0,0.339 -0.023,0.673 -0.069,1l-14.362,0c-0.046,-0.327 -0.069,-0.661 -0.069,-1c0,-0.339 0.023,-0.673 0.069,-1l14.362,0Z" style="fill:url(#_Linear6);"/><defs><linearGradient id="_Linear1" x1="0" y1="0" x2="1" y2="0" gradientUnits="userSpaceOnUse" gradientTransform="matrix(1.8982e-15,31,-31,1.8982e-15,8.25,1)"><stop offset="0" style="stop-color:#fc9f62;stop-opacity:1"/><stop offset="1" style="stop-color:#e55b00;stop-opacity:1"/></linearGradient><linearGradient id="_Linear2" x1="0" y1="0" x2="1" y2="0" gradientUnits="userSpaceOnUse" gradientTransform="matrix(9.49101e-16,15.5,-15.5,9.49101e-16,23.75,1)"><stop offset="0" style="stop-color:#87d0fd;stop-opacity:1"/><stop offset="1" style="stop-color:#049fff;stop-opacity:1"/></linearGradient><linearGradient id="_Linear3" x1="0" y1="0" x2="1" y2="0" gradientUnits="userSpaceOnUse" gradientTransform="matrix(9.49101e-16,15.5,-15.5,9.49101e-16,16,16.5)"><stop offset="0" style="stop-color:#87d0fd;stop-opacity:1"/><stop offset="1" style="stop-color:#049fff;stop-opacity:1"/></linearGradient><linearGradient id="_Linear4" x1="0" y1="0" x2="1" y2="0" gradientUnits="userSpaceOnUse" gradientTransform="matrix(9.49101e-16,15.5,-15.5,9.49101e-16,16,16.5)"><stop offset="0" style="stop-color:#87d0fd;stop-opacity:1"/><stop offset="1" style="stop-color:#049fff;stop-opacity:1"/></linearGradient><linearGradient id="_Linear5" x1="0" y1="0" x2="1" y2="0" gradientUnits="userSpaceOnUse" gradientTransform="matrix(1.8982e-15,31,-31,1.8982e-15,8.25,1)"><stop offset="0" style="stop-color:#eff4fa;stop-opacity:1"/><stop offset="1" style="stop-color:#68a4ec;stop-opacity:1"/></linearGradient><linearGradient id="_Linear6" x1="0" y1="0" x2="1" y2="0" gradientUnits="userSpaceOnUse" gradientTransform="matrix(1.8982e-15,31,-31,1.8982e-15,8.25,1)"><stop offset="0" style="stop-color:#eff4fa;stop-opacity:1"/><stop offset="1" style="stop-color:#68a4ec;stop-opacity:1"/></linearGradient></defs></svg>