<?xml version="1.0" encoding="UTF-8" standalone="no"?><!DOCTYPE svg PUBLIC "-//W3C//DTD SVG 1.1//EN" "http://www.w3.org/Graphics/SVG/1.1/DTD/svg11.dtd"><svg width="100%" height="100%" viewBox="0 0 32 32" version="1.1" xmlns="http://www.w3.org/2000/svg" xmlns:xlink="http://www.w3.org/1999/xlink" xml:space="preserve" xmlns:serif="http://www.serif.com/" style="fill-rule:evenodd;clip-rule:evenodd;stroke-linejoin:round;stroke-miterlimit:2;"><path d="M31,6c0,-1.326 -0.527,-2.598 -1.464,-3.536c-0.938,-0.937 -2.21,-1.464 -3.536,-1.464c-5.322,0 -14.678,0 -20,0c-1.326,-0 -2.598,0.527 -3.536,1.464c-0.937,0.938 -1.464,2.21 -1.464,3.536c0,5.322 0,14.678 0,20c-0,1.326 0.527,2.598 1.464,3.536c0.938,0.937 2.21,1.464 3.536,1.464c5.322,-0 14.678,-0 20,-0c1.326,0 2.598,-0.527 3.536,-1.464c0.937,-0.938 1.464,-2.21 1.464,-3.536l-0,-20Z" style="fill:url(#_Linear1);"/><path d="M12,27l8,0c0.552,0 1,-0.448 1,-1c0,-0.552 -0.448,-1 -1,-1l-8,0c-0.552,0 -1,0.448 -1,1c0,0.552 0.448,1 1,1Z" style="fill:url(#_Linear2);"/><path d="M14.5,8c-0,-0.828 0.672,-1.5 1.5,-1.5c0.828,-0 1.5,0.672 1.5,1.5c0,0.552 0.448,1 1,1c0.552,0 1,-0.448 1,-1c0,-1.932 -1.568,-3.5 -3.5,-3.5c-1.932,-0 -3.5,1.568 -3.5,3.5c0,0.552 0.448,1 1,1c0.552,0 1,-0.448 1,-1Z" style="fill:url(#_Linear3);"/><path d="M8.091,20.5l0.005,-0c3.526,-0 12.282,0 15.808,0l0.005,-0c0.056,0.459 0.111,0.868 0.159,1.21c0.084,0.575 -0.086,1.158 -0.466,1.598c-0.38,0.439 -0.932,0.692 -1.513,0.692c-2.717,0 -9.462,-0 -12.178,-0.001c-0.581,0 -1.133,-0.252 -1.512,-0.692c-0.38,-0.439 -0.55,-1.022 -0.467,-1.59c0.048,-0.344 0.103,-0.756 0.159,-1.217Zm0.211,-2c0.113,-1.254 0.198,-2.65 0.198,-4c0,-4.142 3.358,-7.5 7.5,-7.5l-0,0c4.142,0 7.5,3.358 7.5,7.5l-0,-0c0,1.351 0.085,2.747 0.198,4l-15.396,0Z" style="fill:url(#_Linear4);"/><defs><linearGradient id="_Linear1" x1="0" y1="0" x2="1" y2="0" gradientUnits="userSpaceOnUse" gradientTransform="matrix(2.00815e-15,32.7955,-32.7955,2.00815e-15,16,1)"><stop offset="0" style="stop-color:#87d0fd;stop-opacity:1"/><stop offset="1" style="stop-color:#049fff;stop-opacity:1"/></linearGradient><linearGradient id="_Linear2" x1="0" y1="0" x2="1" y2="0" gradientUnits="userSpaceOnUse" gradientTransform="matrix(4.89859e-16,8,-8,4.89859e-16,16,25)"><stop offset="0" style="stop-color:#fc9f62;stop-opacity:1"/><stop offset="1" style="stop-color:#e55b00;stop-opacity:1"/></linearGradient><linearGradient id="_Linear3" x1="0" y1="0" x2="1" y2="0" gradientUnits="userSpaceOnUse" gradientTransform="matrix(1.68389e-15,27.5,-27.5,1.68389e-15,16.0001,4.5)"><stop offset="0" style="stop-color:#fc9f62;stop-opacity:1"/><stop offset="1" style="stop-color:#e55b00;stop-opacity:1"/></linearGradient><linearGradient id="_Linear4" x1="0" y1="0" x2="1" y2="0" gradientUnits="userSpaceOnUse" gradientTransform="matrix(4.46996e-15,73,-73,4.46996e-15,16.0001,7)"><stop offset="0" style="stop-color:#eff4fa;stop-opacity:1"/><stop offset="1" style="stop-color:#68a4ec;stop-opacity:1"/></linearGradient></defs></svg>