<?xml version="1.0" encoding="UTF-8" standalone="no"?><!DOCTYPE svg PUBLIC "-//W3C//DTD SVG 1.1//EN" "http://www.w3.org/Graphics/SVG/1.1/DTD/svg11.dtd"><svg width="100%" height="100%" viewBox="0 0 32 32" version="1.1" xmlns="http://www.w3.org/2000/svg" xmlns:xlink="http://www.w3.org/1999/xlink" xml:space="preserve" xmlns:serif="http://www.serif.com/" style="fill-rule:evenodd;clip-rule:evenodd;stroke-linejoin:round;stroke-miterlimit:2;"><path d="M13.008,8.25c0.129,-2.093 1.867,-3.75 3.992,-3.75c2.859,-0 7.141,-0 10,0c2.209,0 4,1.791 4,4l-0,15c0,2.209 -1.791,4 -4,4c-5.382,0 -16.618,0 -22,-0c-2.209,-0 -4,-1.791 -4,-4c-0,-3.156 -0,-8.094 -0,-11.25c-0,-2.209 1.791,-4 4,-4l8.008,0Z" style="fill:url(#_Linear1);"/><path d="M26,8.5l-7,0c-0.552,-0 -1,0.448 -1,1c-0,0.552 0.448,1 1,1l7,0c0.552,-0 1,-0.448 1,-1c-0,-0.552 -0.448,-1 -1,-1Z" style="fill:url(#_Linear2);"/><path d="M26,18l-7,0c-0.552,0 -1,0.448 -1,1c0,0.552 0.448,1 1,1l7,0c0.552,0 1,-0.448 1,-1c0,-0.552 -0.448,-1 -1,-1Z" style="fill:url(#_Linear3);"/><path d="M26,21.621l-10,0c-0.552,0 -1,0.449 -1,1c-0,0.552 0.448,1 1,1l10,0c0.552,0 1,-0.448 1,-1c-0,-0.551 -0.448,-1 -1,-1Z" style="fill:url(#_Linear4);"/><defs><linearGradient id="_Linear1" x1="0" y1="0" x2="1" y2="0" gradientUnits="userSpaceOnUse" gradientTransform="matrix(1.83697e-15,30,-30,1.83697e-15,16,2)"><stop offset="0" style="stop-color:#87d0fd;stop-opacity:1"/><stop offset="1" style="stop-color:#049fff;stop-opacity:1"/></linearGradient><linearGradient id="_Linear2" x1="0" y1="0" x2="1" y2="0" gradientUnits="userSpaceOnUse" gradientTransform="matrix(5.51091e-16,9,-9,5.51091e-16,22.5,8)"><stop offset="0" style="stop-color:#eff4fa;stop-opacity:1"/><stop offset="1" style="stop-color:#68a4ec;stop-opacity:1"/></linearGradient><linearGradient id="_Linear3" x1="0" y1="0" x2="1" y2="0" gradientUnits="userSpaceOnUse" gradientTransform="matrix(9.63972e-16,15.7429,-15.7429,9.63972e-16,21,18.5)"><stop offset="0" style="stop-color:#fc9f62;stop-opacity:1"/><stop offset="1" style="stop-color:#e55b00;stop-opacity:1"/></linearGradient><linearGradient id="_Linear4" x1="0" y1="0" x2="1" y2="0" gradientUnits="userSpaceOnUse" gradientTransform="matrix(9.63972e-16,15.7429,-15.7429,9.63972e-16,21,18.5)"><stop offset="0" style="stop-color:#fc9f62;stop-opacity:1"/><stop offset="1" style="stop-color:#e55b00;stop-opacity:1"/></linearGradient></defs></svg>