<?xml version="1.0" encoding="UTF-8" standalone="no"?><!DOCTYPE svg PUBLIC "-//W3C//DTD SVG 1.1//EN" "http://www.w3.org/Graphics/SVG/1.1/DTD/svg11.dtd"><svg width="100%" height="100%" viewBox="0 0 32 32" version="1.1" xmlns="http://www.w3.org/2000/svg" xmlns:xlink="http://www.w3.org/1999/xlink" xml:space="preserve" xmlns:serif="http://www.serif.com/" style="fill-rule:evenodd;clip-rule:evenodd;stroke-linejoin:round;stroke-miterlimit:2;"><path d="M5,23.25l-0,-0c-2.209,-0 -4,-1.791 -4,-4c-0,-3.443 0,-9.057 0,-12.5c0,-2.209 1.791,-4 4,-4c5.382,0 16.618,-0 22,0c2.209,0 4,1.791 4,4c0,3.443 0,9.057 -0,12.5c-0,2.209 -1.791,4 -4,4l-13.767,-0l-4.8,4.933c-0.567,0.583 -1.432,0.765 -2.186,0.458c-0.754,-0.306 -1.247,-1.039 -1.247,-1.853l-0,-3.538Z" style="fill:url(#_Linear1);"/><path d="M10.844,10l10.312,0c0.552,-0 1,-0.448 1,-1c0,-0.552 -0.448,-1 -1,-1l-10.312,0c-0.552,-0 -1,0.448 -1,1c-0,0.552 0.448,1 1,1Z" style="fill:url(#_Linear2);"/><path d="M10.844,13.75l10.312,0c0.552,-0 1,-0.448 1,-1c0,-0.552 -0.448,-1 -1,-1l-10.312,0c-0.552,-0 -1,0.448 -1,1c-0,0.552 0.448,1 1,1Z" style="fill:url(#_Linear3);"/><path d="M10.844,17.5l10.312,-0c0.552,-0 1,-0.448 1,-1c0,-0.552 -0.448,-1 -1,-1l-10.312,-0c-0.552,-0 -1,0.448 -1,1c-0,0.552 0.448,1 1,1Z" style="fill:url(#_Linear4);"/><defs><linearGradient id="_Linear1" x1="0" y1="0" x2="1" y2="0" gradientUnits="userSpaceOnUse" gradientTransform="matrix(1.83697e-15,30,-30,1.83697e-15,16,2)"><stop offset="0" style="stop-color:#87d0fd;stop-opacity:1"/><stop offset="1" style="stop-color:#049fff;stop-opacity:1"/></linearGradient><linearGradient id="_Linear2" x1="0" y1="0" x2="1" y2="0" gradientUnits="userSpaceOnUse" gradientTransform="matrix(1.94413e-15,31.75,-31.75,1.94413e-15,16,8.25)"><stop offset="0" style="stop-color:#fc9f62;stop-opacity:1"/><stop offset="1" style="stop-color:#e55b00;stop-opacity:1"/></linearGradient><linearGradient id="_Linear3" x1="0" y1="0" x2="1" y2="0" gradientUnits="userSpaceOnUse" gradientTransform="matrix(1.94413e-15,31.75,-31.75,1.94413e-15,16,8.25)"><stop offset="0" style="stop-color:#fc9f62;stop-opacity:1"/><stop offset="1" style="stop-color:#e55b00;stop-opacity:1"/></linearGradient><linearGradient id="_Linear4" x1="0" y1="0" x2="1" y2="0" gradientUnits="userSpaceOnUse" gradientTransform="matrix(1.94413e-15,31.75,-31.75,1.94413e-15,16,8.25)"><stop offset="0" style="stop-color:#fc9f62;stop-opacity:1"/><stop offset="1" style="stop-color:#e55b00;stop-opacity:1"/></linearGradient></defs></svg>