<?xml version="1.0" encoding="UTF-8" standalone="no"?><!DOCTYPE svg PUBLIC "-//W3C//DTD SVG 1.1//EN" "http://www.w3.org/Graphics/SVG/1.1/DTD/svg11.dtd"><svg width="100%" height="100%" viewBox="0 0 32 32" version="1.1" xmlns="http://www.w3.org/2000/svg" xmlns:xlink="http://www.w3.org/1999/xlink" xml:space="preserve" xmlns:serif="http://www.serif.com/" style="fill-rule:evenodd;clip-rule:evenodd;stroke-linejoin:round;stroke-miterlimit:2;"><path d="M25.107,22.03c0.508,-0.054 0.893,-0.483 0.893,-0.994c-0,-0 -0,-10.626 -0,-13.708c-0,-0.795 -0.316,-1.558 -0.879,-2.121c-0.528,-0.528 -1.3,-1.3 -1.828,-1.828c-0.563,-0.563 -1.326,-0.879 -2.121,-0.879c-2.092,-0 -7.67,-0 -11.172,-0c-1.061,-0 -2.078,0.421 -2.828,1.172c-0.751,0.75 -1.172,1.767 -1.172,2.828c0,5.01 0,14.536 0,14.536c0,0.511 0.385,0.94 0.893,0.994l9,0.964c0.071,0.008 0.143,0.008 0.214,0l9,-0.964Z" style="fill:url(#_Linear1);"/><path d="M16,20.994l11.68,-1.251c0.847,-0.091 1.692,0.182 2.325,0.751c0.633,0.569 0.995,1.38 0.995,2.232l-0,5.274c0,0.796 -0.316,1.559 -0.879,2.121c-0.562,0.563 -1.325,0.879 -2.121,0.879c-5.154,-0 -18.846,-0 -24,-0c-0.796,0 -1.559,-0.316 -2.121,-0.879c-0.563,-0.562 -0.879,-1.325 -0.879,-2.121c-0,-1.543 -0,-3.677 -0,-5.274c0,-0.852 0.362,-1.663 0.995,-2.232c0.633,-0.569 1.478,-0.842 2.325,-0.751l11.68,1.251Z" style="fill:url(#_Linear2);"/><path d="M14,9l7,0c0.552,0 1,-0.448 1,-1c0,-0.552 -0.448,-1 -1,-1l-7,0c-0.552,0 -1,0.448 -1,1c0,0.552 0.448,1 1,1Z" style="fill:url(#_Linear3);"/><path d="M11,13l10,0c0.552,-0 1,-0.448 1,-1c-0,-0.552 -0.448,-1 -1,-1l-10,0c-0.552,-0 -1,0.448 -1,1c-0,0.552 0.448,1 1,1Z" style="fill:url(#_Linear4);"/><path d="M11,17l10,0c0.552,0 1,-0.448 1,-1c0,-0.552 -0.448,-1 -1,-1l-10,0c-0.552,0 -1,0.448 -1,1c0,0.552 0.448,1 1,1Z" style="fill:url(#_Linear5);"/><defs><linearGradient id="_Linear1" x1="0" y1="0" x2="1" y2="0" gradientUnits="userSpaceOnUse" gradientTransform="matrix(2.14313e-15,35,-35,2.14313e-15,15.5,2.5)"><stop offset="0" style="stop-color:#54a5ff;stop-opacity:1"/><stop offset="1" style="stop-color:#0068dc;stop-opacity:1"/></linearGradient><linearGradient id="_Linear2" x1="0" y1="0" x2="1" y2="0" gradientUnits="userSpaceOnUse" gradientTransform="matrix(1.71451e-15,28,-28,1.71451e-15,14,17)"><stop offset="0" style="stop-color:#87d0fd;stop-opacity:1"/><stop offset="1" style="stop-color:#049fff;stop-opacity:1"/></linearGradient><linearGradient id="_Linear3" x1="0" y1="0" x2="1" y2="0" gradientUnits="userSpaceOnUse" gradientTransform="matrix(2.06659e-15,33.75,-33.75,2.06659e-15,18,7.25)"><stop offset="0" style="stop-color:#eff4fa;stop-opacity:1"/><stop offset="1" style="stop-color:#68a4ec;stop-opacity:1"/></linearGradient><linearGradient id="_Linear4" x1="0" y1="0" x2="1" y2="0" gradientUnits="userSpaceOnUse" gradientTransform="matrix(2.06659e-15,33.75,-33.75,2.06659e-15,18,7.25)"><stop offset="0" style="stop-color:#eff4fa;stop-opacity:1"/><stop offset="1" style="stop-color:#68a4ec;stop-opacity:1"/></linearGradient><linearGradient id="_Linear5" x1="0" y1="0" x2="1" y2="0" gradientUnits="userSpaceOnUse" gradientTransform="matrix(2.06659e-15,33.75,-33.75,2.06659e-15,18,7.25)"><stop offset="0" style="stop-color:#eff4fa;stop-opacity:1"/><stop offset="1" style="stop-color:#68a4ec;stop-opacity:1"/></linearGradient></defs></svg>