<?xml version="1.0" encoding="UTF-8" standalone="no"?><!DOCTYPE svg PUBLIC "-//W3C//DTD SVG 1.1//EN" "http://www.w3.org/Graphics/SVG/1.1/DTD/svg11.dtd"><svg width="100%" height="100%" viewBox="0 0 32 32" version="1.1" xmlns="http://www.w3.org/2000/svg" xmlns:xlink="http://www.w3.org/1999/xlink" xml:space="preserve" xmlns:serif="http://www.serif.com/" style="fill-rule:evenodd;clip-rule:evenodd;stroke-linejoin:round;stroke-miterlimit:2;"><path d="M22.69,5c-0,-2.209 -1.791,-4 -4,-4c-1.661,0 -3.719,0 -5.38,0c-2.209,0 -4,1.791 -4,4c0,0.109 0,0.172 0,0.172c0,0.553 0.448,1 1,1l11.38,0c0.552,0 1,-0.447 1,-1l-0,-0.172Z" style="fill:url(#_Linear1);"/><path d="M25.828,10.931c-0,-1.061 -0.422,-2.078 -1.172,-2.828c-0.75,-0.751 -1.768,-1.172 -2.828,-1.172c-3.25,0 -8.406,0 -11.656,0c-1.06,0 -2.078,0.421 -2.828,1.172c-0.75,0.75 -1.172,1.767 -1.172,2.828c0,4.217 0,11.852 0,16.069c0,1.061 0.422,2.078 1.172,2.828c0.75,0.751 1.768,1.172 2.828,1.172c3.25,-0 8.406,-0 11.656,-0c1.06,0 2.078,-0.421 2.828,-1.172c0.75,-0.75 1.172,-1.767 1.172,-2.828l-0,-16.069Z" style="fill:url(#_Linear2);"/><path d="M25.379,4.172l-18.758,0c-0.552,0 -1,0.448 -1,1c-0,0.552 0.448,1 1,1l18.758,0c0.552,0 1,-0.448 1,-1c0,-0.552 -0.448,-1 -1,-1Z" style="fill:url(#_Linear3);"/><path d="M10.5,15.216l-0,7.5c-0,0.551 0.448,1 1,1c0.552,-0 1,-0.449 1,-1l-0,-7.5c-0,-0.552 -0.448,-1 -1,-1c-0.552,-0 -1,0.448 -1,1Z" style="fill:url(#_Linear4);"/><path d="M15,15.216l0,7.5c0,0.551 0.448,1 1,1c0.552,-0 1,-0.449 1,-1l0,-7.5c0,-0.552 -0.448,-1 -1,-1c-0.552,-0 -1,0.448 -1,1Z" style="fill:url(#_Linear5);"/><path d="M19.5,15.216l0,7.5c-0,0.551 0.448,1 1,1c0.552,-0 1,-0.449 1,-1l0,-7.5c-0,-0.552 -0.448,-1 -1,-1c-0.552,-0 -1,0.448 -1,1Z" style="fill:url(#_Linear6);"/><defs><linearGradient id="_Linear1" x1="0" y1="0" x2="1" y2="0" gradientUnits="userSpaceOnUse" gradientTransform="matrix(1.19403e-15,19.5,-19.5,1.19403e-15,15,0.5)"><stop offset="0" style="stop-color:#eff4fa;stop-opacity:1"/><stop offset="1" style="stop-color:#68a4ec;stop-opacity:1"/></linearGradient><linearGradient id="_Linear2" x1="0" y1="0" x2="1" y2="0" gradientUnits="userSpaceOnUse" gradientTransform="matrix(1.59204e-15,26,-26,1.59204e-15,16,7)"><stop offset="0" style="stop-color:#87d0fd;stop-opacity:1"/><stop offset="1" style="stop-color:#049fff;stop-opacity:1"/></linearGradient><linearGradient id="_Linear3" x1="0" y1="0" x2="1" y2="0" gradientUnits="userSpaceOnUse" gradientTransform="matrix(1.41578e-15,23.1214,-23.1214,1.41578e-15,16,-0.5)"><stop offset="0" style="stop-color:#b7cde4;stop-opacity:1"/><stop offset="1" style="stop-color:#3989dd;stop-opacity:1"/></linearGradient><linearGradient id="_Linear4" x1="0" y1="0" x2="1" y2="0" gradientUnits="userSpaceOnUse" gradientTransform="matrix(1.98262e-15,32.3786,-32.3786,1.98262e-15,16,14.6214)"><stop offset="0" style="stop-color:#fc9f62;stop-opacity:1"/><stop offset="1" style="stop-color:#e55b00;stop-opacity:1"/></linearGradient><linearGradient id="_Linear5" x1="0" y1="0" x2="1" y2="0" gradientUnits="userSpaceOnUse" gradientTransform="matrix(1.98262e-15,32.3786,-32.3786,1.98262e-15,16,14.6214)"><stop offset="0" style="stop-color:#fc9f62;stop-opacity:1"/><stop offset="1" style="stop-color:#e55b00;stop-opacity:1"/></linearGradient><linearGradient id="_Linear6" x1="0" y1="0" x2="1" y2="0" gradientUnits="userSpaceOnUse" gradientTransform="matrix(1.98262e-15,32.3786,-32.3786,1.98262e-15,16,14.6214)"><stop offset="0" style="stop-color:#fc9f62;stop-opacity:1"/><stop offset="1" style="stop-color:#e55b00;stop-opacity:1"/></linearGradient></defs></svg>