<?xml version="1.0" encoding="UTF-8" standalone="no"?><!DOCTYPE svg PUBLIC "-//W3C//DTD SVG 1.1//EN" "http://www.w3.org/Graphics/SVG/1.1/DTD/svg11.dtd"><svg width="100%" height="100%" viewBox="0 0 32 32" version="1.1" xmlns="http://www.w3.org/2000/svg" xmlns:xlink="http://www.w3.org/1999/xlink" xml:space="preserve" xmlns:serif="http://www.serif.com/" style="fill-rule:evenodd;clip-rule:evenodd;stroke-linejoin:round;stroke-miterlimit:2;"><path d="M20,6.621l0,-2.5c0,-0.551 -0.448,-1 -1,-1c-0.552,0 -1,0.449 -1,1l0,2.5c0,0.552 0.448,1 1,1c0.552,0 1,-0.448 1,-1Z" style="fill:url(#_Linear1);"/><path d="M21.5,2.379l-5,-0c-0.552,-0 -1,0.448 -1,1c-0,0.551 0.448,1 1,1l5,-0c0.552,-0 1,-0.449 1,-1c-0,-0.552 -0.448,-1 -1,-1Z" style="fill:url(#_Linear2);"/><circle cx="19" cy="17.621" r="12" style="fill:url(#_Linear3);"/><circle cx="19" cy="17.621" r="9.556" style="fill:#eff4fa;"/><circle cx="19" cy="17.621" r="2" style="fill:url(#_Linear4);"/><path d="M18.293,18.329c-0,-0 0.681,0.638 1.566,1.433c1.556,1.398 3.721,3.28 3.721,3.28c0.232,0.232 0.608,0.232 0.84,-0c0.232,-0.232 0.232,-0.609 0,-0.841c0,0 -1.882,-2.165 -3.279,-3.72c-0.796,-0.886 -1.434,-1.567 -1.434,-1.567c-0.39,-0.39 -1.024,-0.39 -1.414,0c-0.39,0.391 -0.39,1.024 -0,1.415Z" style="fill:url(#_Linear5);"/><path d="M11,13.621l-9,0c-0.552,0 -1,0.449 -1,1c0,0.552 0.448,1 1,1l9,0c0.552,0 1,-0.448 1,-1c-0,-0.551 -0.448,-1 -1,-1Z" style="fill:url(#_Linear6);"/><path d="M11,17.621l-7,0c-0.552,0 -1,0.449 -1,1c-0,0.552 0.448,1 1,1l7,0c0.552,0 1,-0.448 1,-1c-0,-0.551 -0.448,-1 -1,-1Z" style="fill:url(#_Linear7);"/><path d="M11,21.621l-4.893,0c-0.552,0 -1,0.449 -1,1c0,0.552 0.448,1 1,1l4.893,0c0.552,0 1,-0.448 1,-1c-0,-0.551 -0.448,-1 -1,-1Z" style="fill:url(#_Linear8);"/><defs><linearGradient id="_Linear1" x1="0" y1="0" x2="1" y2="0" gradientUnits="userSpaceOnUse" gradientTransform="matrix(8.10891e-16,13.2429,-13.2429,8.10891e-16,19,2.37857)"><stop offset="0" style="stop-color:#eff4fa;stop-opacity:1"/><stop offset="1" style="stop-color:#68a4ec;stop-opacity:1"/></linearGradient><linearGradient id="_Linear2" x1="0" y1="0" x2="1" y2="0" gradientUnits="userSpaceOnUse" gradientTransform="matrix(8.10891e-16,13.2429,-13.2429,8.10891e-16,19,2.37857)"><stop offset="0" style="stop-color:#eff4fa;stop-opacity:1"/><stop offset="1" style="stop-color:#68a4ec;stop-opacity:1"/></linearGradient><linearGradient id="_Linear3" x1="0" y1="0" x2="1" y2="0" gradientUnits="userSpaceOnUse" gradientTransform="matrix(1.59204e-15,26,-26,1.59204e-15,18.7778,5.99999)"><stop offset="0" style="stop-color:#87d0fd;stop-opacity:1"/><stop offset="1" style="stop-color:#049fff;stop-opacity:1"/></linearGradient><linearGradient id="_Linear4" x1="0" y1="0" x2="1" y2="0" gradientUnits="userSpaceOnUse" gradientTransform="matrix(6.12323e-16,10,-10,6.12323e-16,19,15.5)"><stop offset="0" style="stop-color:#fc9f62;stop-opacity:1"/><stop offset="1" style="stop-color:#e55b00;stop-opacity:1"/></linearGradient><linearGradient id="_Linear5" x1="0" y1="0" x2="1" y2="0" gradientUnits="userSpaceOnUse" gradientTransform="matrix(18.8786,18.8786,-18.8786,18.8786,16.5,15.6214)"><stop offset="0" style="stop-color:#eff4fa;stop-opacity:1"/><stop offset="1" style="stop-color:#68a4ec;stop-opacity:1"/></linearGradient><linearGradient id="_Linear6" x1="0" y1="0" x2="1" y2="0" gradientUnits="userSpaceOnUse" gradientTransform="matrix(26.9998,0,0,26.9998,-1.99979,18.1478)"><stop offset="0" style="stop-color:#fc9f62;stop-opacity:1"/><stop offset="1" style="stop-color:#e55b00;stop-opacity:1"/></linearGradient><linearGradient id="_Linear7" x1="0" y1="0" x2="1" y2="0" gradientUnits="userSpaceOnUse" gradientTransform="matrix(26.9998,0,0,26.9998,-1.99979,18.1478)"><stop offset="0" style="stop-color:#fc9f62;stop-opacity:1"/><stop offset="1" style="stop-color:#e55b00;stop-opacity:1"/></linearGradient><linearGradient id="_Linear8" x1="0" y1="0" x2="1" y2="0" gradientUnits="userSpaceOnUse" gradientTransform="matrix(26.9998,0,0,26.9998,-1.99979,18.1478)"><stop offset="0" style="stop-color:#fc9f62;stop-opacity:1"/><stop offset="1" style="stop-color:#e55b00;stop-opacity:1"/></linearGradient></defs></svg>