<?xml version="1.0" encoding="UTF-8" standalone="no"?><!DOCTYPE svg PUBLIC "-//W3C//DTD SVG 1.1//EN" "http://www.w3.org/Graphics/SVG/1.1/DTD/svg11.dtd"><svg width="100%" height="100%" viewBox="0 0 32 32" version="1.1" xmlns="http://www.w3.org/2000/svg" xmlns:xlink="http://www.w3.org/1999/xlink" xml:space="preserve" xmlns:serif="http://www.serif.com/" style="fill-rule:evenodd;clip-rule:evenodd;stroke-linejoin:round;stroke-miterlimit:2;"><path d="M21.25,22.5c0,-0.552 -0.448,-1 -1,-1l-8.5,-0c-0.552,-0 -1,0.448 -1,1l0,3c0,0.552 0.448,1 1,1l8.5,-0c0.552,-0 1,-0.448 1,-1l0,-3Z" style="fill:url(#_Linear1);"/><path d="M26,27.25l0,-0c-0,-0.729 -0.29,-1.429 -0.805,-1.945c-0.516,-0.515 -1.216,-0.805 -1.945,-0.805c-3.442,-0 -11.058,-0 -14.5,-0c-0.729,-0 -1.429,0.29 -1.945,0.805c-0.515,0.516 -0.805,1.216 -0.805,1.945c0,0.729 0.29,1.429 0.805,1.945c0.516,0.515 1.216,0.805 1.945,0.805c3.442,-0 11.058,-0 14.5,-0c0.729,0 1.429,-0.29 1.945,-0.805c0.515,-0.516 0.805,-1.216 0.805,-1.945Z" style="fill:url(#_Linear2);"/><path d="M31,5.5c-0,-2.209 -1.791,-4 -4,-4c-5.382,-0 -16.618,-0 -22,-0c-2.209,0 -4,1.791 -4,4c-0,3.776 -0,10.224 -0,14c0,2.209 1.791,4 4,4c5.382,-0 16.618,-0 22,-0c2.209,-0 4,-1.791 4,-4l-0,-14Z" style="fill:url(#_Linear3);"/><rect x="1" y="16.148" width="30" height="2" style="fill:url(#_Linear4);"/><path d="M15.023,10.711l2.355,-4.2c0.153,-0.273 0.425,-0.459 0.735,-0.502c0.31,-0.042 0.623,0.062 0.844,0.284l2.707,2.707l3.086,0c0.552,0 1,0.448 1,1c-0,0.552 -0.448,1 -1,1l-3.5,0c-0.265,0 -0.52,-0.105 -0.707,-0.293l-2.066,-2.066l-2.355,4.2c-0.153,0.273 -0.425,0.459 -0.735,0.502c-0.31,0.043 -0.623,-0.062 -0.844,-0.284l-2.207,-2.207l-5.086,0c-0.552,0 -1,-0.448 -1,-1c0,-0.552 0.448,-1 1,-1l5.5,0c0.265,0 0.52,0.106 0.707,0.293l1.566,1.566Z" style="fill:url(#_Linear5);"/><defs><linearGradient id="_Linear1" x1="0" y1="0" x2="1" y2="0" gradientUnits="userSpaceOnUse" gradientTransform="matrix(1.07157e-15,17.5,-17.5,1.07157e-15,16,21.5)"><stop offset="0" style="stop-color:#fc9f62;stop-opacity:1"/><stop offset="1" style="stop-color:#e55b00;stop-opacity:1"/></linearGradient><linearGradient id="_Linear2" x1="0" y1="0" x2="1" y2="0" gradientUnits="userSpaceOnUse" gradientTransform="matrix(1.09313e-15,17.8522,-17.8522,1.09313e-15,16,24.5)"><stop offset="0" style="stop-color:#eff4fa;stop-opacity:1"/><stop offset="1" style="stop-color:#68a4ec;stop-opacity:1"/></linearGradient><linearGradient id="_Linear3" x1="0" y1="0" x2="1" y2="0" gradientUnits="userSpaceOnUse" gradientTransform="matrix(1.86759e-15,30.5,-30.5,1.86759e-15,16,1.5)"><stop offset="0" style="stop-color:#87d0fd;stop-opacity:1"/><stop offset="1" style="stop-color:#049fff;stop-opacity:1"/></linearGradient><linearGradient id="_Linear4" x1="0" y1="0" x2="1" y2="0" gradientUnits="userSpaceOnUse" gradientTransform="matrix(2.3775e-15,38.8276,-38.8276,2.3775e-15,16,6.17241)"><stop offset="0" style="stop-color:#eff4fa;stop-opacity:1"/><stop offset="1" style="stop-color:#68a4ec;stop-opacity:1"/></linearGradient><linearGradient id="_Linear5" x1="0" y1="0" x2="1" y2="0" gradientUnits="userSpaceOnUse" gradientTransform="matrix(2.3775e-15,38.8276,-38.8276,2.3775e-15,16,6.17241)"><stop offset="0" style="stop-color:#eff4fa;stop-opacity:1"/><stop offset="1" style="stop-color:#68a4ec;stop-opacity:1"/></linearGradient></defs></svg>