<?xml version="1.0" encoding="UTF-8" standalone="no"?><!DOCTYPE svg PUBLIC "-//W3C//DTD SVG 1.1//EN" "http://www.w3.org/Graphics/SVG/1.1/DTD/svg11.dtd"><svg width="100%" height="100%" viewBox="0 0 32 32" version="1.1" xmlns="http://www.w3.org/2000/svg" xmlns:xlink="http://www.w3.org/1999/xlink" xml:space="preserve" xmlns:serif="http://www.serif.com/" style="fill-rule:evenodd;clip-rule:evenodd;stroke-linejoin:round;stroke-miterlimit:2;"><path d="M8.682,2.746l15.475,-0c2.137,-0 4.001,1.45 4.527,3.521c0.598,2.359 1.47,5.796 2.173,8.563c0.354,1.396 0.044,2.878 -0.841,4.015c-0.885,1.138 -2.245,1.803 -3.686,1.803l-5.553,-0l1.955,3.738c0.574,1.097 0.491,2.423 -0.216,3.44c-0.707,1.017 -1.92,1.557 -3.149,1.402c-0.001,-0 -0.001,-0 -0.002,-0.001c-0.874,-0.11 -1.67,-0.556 -2.22,-1.244c-0.006,-0.008 -0.013,-0.017 -0.019,-0.025l-5.479,-7.31l-2.965,-0l-0,-17.902Z" style="fill:url(#_Linear1);"/><path d="M7,20.642c-0.035,0.004 -0.071,0.006 -0.107,0.006l-2.893,-0c-1.657,-0 -3,-1.343 -3,-3c0,-3.055 0,-8.848 0,-11.902c0,-1.657 1.343,-3 3,-3c1.352,-0 2.893,-0 2.893,-0c0.036,-0 0.072,0.002 0.107,0.006l0,17.89Z" style="fill:url(#_Linear2);"/><defs><linearGradient id="_Linear1" x1="0" y1="0" x2="1" y2="0" gradientUnits="userSpaceOnUse" gradientTransform="matrix(1.77574e-15,29,-29,1.77574e-15,15.5,2)"><stop offset="0" style="stop-color:#87d0fd;stop-opacity:1"/><stop offset="1" style="stop-color:#049fff;stop-opacity:1"/></linearGradient><linearGradient id="_Linear2" x1="0" y1="0" x2="1" y2="0" gradientUnits="userSpaceOnUse" gradientTransform="matrix(1.77574e-15,29,-29,1.77574e-15,15.5,2)"><stop offset="0" style="stop-color:#87d0fd;stop-opacity:1"/><stop offset="1" style="stop-color:#049fff;stop-opacity:1"/></linearGradient></defs></svg>