<?xml version="1.0" encoding="UTF-8" standalone="no"?><!DOCTYPE svg PUBLIC "-//W3C//DTD SVG 1.1//EN" "http://www.w3.org/Graphics/SVG/1.1/DTD/svg11.dtd"><svg width="100%" height="100%" viewBox="0 0 32 32" version="1.1" xmlns="http://www.w3.org/2000/svg" xmlns:xlink="http://www.w3.org/1999/xlink" xml:space="preserve" xmlns:serif="http://www.serif.com/" style="fill-rule:evenodd;clip-rule:evenodd;stroke-linejoin:round;stroke-miterlimit:2;"><path d="M8.5,11.353c0.009,-0.001 0.017,-0.001 0.025,-0.001l3.122,0l5.479,-7.31c0.006,-0.008 0.013,-0.017 0.019,-0.025c0.55,-0.688 1.346,-1.134 2.22,-1.244c0.001,-0.001 0.001,-0.001 0.002,-0.001c1.229,-0.155 2.442,0.385 3.149,1.402c0.707,1.017 0.79,2.343 0.216,3.44l-1.955,3.738l5.553,0c1.441,0 2.801,0.665 3.686,1.803c0.885,1.137 1.195,2.619 0.841,4.015c-0.703,2.767 -1.575,6.204 -2.173,8.563c-0.526,2.071 -2.39,3.521 -4.527,3.521l-15.632,0c-0.008,0 -0.016,-0 -0.025,-0l-0,-17.901Z" style="fill:url(#_Linear1);"/><path d="M6.818,11.352l0,17.902l-2.818,0c-1.657,0 -3,-1.343 -3,-3c0,-3.054 0,-8.847 0,-11.902c0,-1.657 1.343,-3 3,-3l2.818,0Z" style="fill:url(#_Linear2);"/><defs><linearGradient id="_Linear1" x1="0" y1="0" x2="1" y2="0" gradientUnits="userSpaceOnUse" gradientTransform="matrix(1.83697e-15,30,-30,1.83697e-15,16.1563,2)"><stop offset="0" style="stop-color:#87d0fd;stop-opacity:1"/><stop offset="1" style="stop-color:#049fff;stop-opacity:1"/></linearGradient><linearGradient id="_Linear2" x1="0" y1="0" x2="1" y2="0" gradientUnits="userSpaceOnUse" gradientTransform="matrix(1.83697e-15,30,-30,1.83697e-15,16.1563,2)"><stop offset="0" style="stop-color:#87d0fd;stop-opacity:1"/><stop offset="1" style="stop-color:#049fff;stop-opacity:1"/></linearGradient></defs></svg>