<?xml version="1.0" encoding="UTF-8" standalone="no"?><!DOCTYPE svg PUBLIC "-//W3C//DTD SVG 1.1//EN" "http://www.w3.org/Graphics/SVG/1.1/DTD/svg11.dtd"><svg width="100%" height="100%" viewBox="0 0 32 32" version="1.1" xmlns="http://www.w3.org/2000/svg" xmlns:xlink="http://www.w3.org/1999/xlink" xml:space="preserve" xmlns:serif="http://www.serif.com/" style="fill-rule:evenodd;clip-rule:evenodd;stroke-linejoin:round;stroke-miterlimit:2;"><path d="M14.28,18.568c-0.065,-0.382 -0.344,-0.692 -0.717,-0.796l-5.137,-1.439c-0.314,-0.088 -0.652,-0.017 -0.904,0.19c-0.253,0.207 -0.388,0.525 -0.363,0.85c0,0 0.494,6.352 0.783,10.073c0.155,2.006 1.828,3.554 3.84,3.554c0.001,-0 0.002,-0 0.003,-0c1.143,-0 2.228,-0.504 2.966,-1.377c0.738,-0.873 1.054,-2.027 0.863,-3.154c-0.56,-3.32 -1.334,-7.901 -1.334,-7.901Z" style="fill:url(#_Linear1);"/><path d="M29.286,4c-0,-0.796 -0.316,-1.559 -0.879,-2.121c-0.563,-0.563 -1.326,-0.879 -2.121,-0.879c-1.054,0 -2.13,0 -2.13,0c-0.552,0 -1,0.448 -1,1l0,19.429c0,0.552 0.448,1 1,1l2.13,-0c0.795,-0 1.558,-0.316 2.121,-0.879c0.563,-0.563 0.879,-1.326 0.879,-2.121l-0,-15.429Z" style="fill:url(#_Linear2);"/><path d="M24.116,1.001c0.016,-0.001 0.031,-0.001 0.046,-0.001l0.994,0l0,21.429l-0.997,-0l-0.034,-0.001c-0.08,-0.002 -0.158,-0.014 -0.233,-0.035l-15.978,-3.994c-0.445,-0.112 -0.758,-0.512 -0.758,-0.97l0,-11.429c0,-0.459 0.313,-0.859 0.758,-0.97l15.979,-3.995c0.07,-0.019 0.142,-0.031 0.218,-0.034l0.005,-0Z" style="fill:url(#_Linear3);"/><path d="M8.027,5.002l0.974,-0.244l0.155,0l0,13.951l-1.129,-0.282c-1.396,-0.033 -2.729,-0.602 -3.719,-1.592c-1.02,-1.021 -1.594,-2.405 -1.594,-3.848c0,-0.836 0,-1.71 0,-2.545c0,-1.443 0.574,-2.827 1.594,-3.848c0.99,-0.99 2.323,-1.559 3.719,-1.592Z" style="fill:url(#_Linear4);"/><defs><linearGradient id="_Linear1" x1="0" y1="0" x2="1" y2="0" gradientUnits="userSpaceOnUse" gradientTransform="matrix(2.38806e-15,-39,39,2.38806e-15,11.5,31)"><stop offset="0" style="stop-color:#eff4fa;stop-opacity:1"/><stop offset="1" style="stop-color:#68a4ec;stop-opacity:1"/></linearGradient><linearGradient id="_Linear2" x1="0" y1="0" x2="1" y2="0" gradientUnits="userSpaceOnUse" gradientTransform="matrix(-18.5162,2.26758e-15,-2.26758e-15,-18.5162,29.2857,12)"><stop offset="0" style="stop-color:#eff4fa;stop-opacity:1"/><stop offset="1" style="stop-color:#68a4ec;stop-opacity:1"/></linearGradient><linearGradient id="_Linear3" x1="0" y1="0" x2="1" y2="0" gradientUnits="userSpaceOnUse" gradientTransform="matrix(3.01518e-15,49.2417,-49.2417,3.01518e-15,17,2.75831)"><stop offset="0" style="stop-color:#87d0fd;stop-opacity:1"/><stop offset="1" style="stop-color:#049fff;stop-opacity:1"/></linearGradient><linearGradient id="_Linear4" x1="0" y1="0" x2="1" y2="0" gradientUnits="userSpaceOnUse" gradientTransform="matrix(28.2857,0,0,28.2857,3,13)"><stop offset="0" style="stop-color:#fc9f62;stop-opacity:1"/><stop offset="1" style="stop-color:#e55b00;stop-opacity:1"/></linearGradient></defs></svg>