<?xml version="1.0" encoding="UTF-8" standalone="no"?><!DOCTYPE svg PUBLIC "-//W3C//DTD SVG 1.1//EN" "http://www.w3.org/Graphics/SVG/1.1/DTD/svg11.dtd"><svg width="100%" height="100%" viewBox="0 0 32 32" version="1.1" xmlns="http://www.w3.org/2000/svg" xmlns:xlink="http://www.w3.org/1999/xlink" xml:space="preserve" xmlns:serif="http://www.serif.com/" style="fill-rule:evenodd;clip-rule:evenodd;stroke-linejoin:round;stroke-miterlimit:2;"><circle cx="16" cy="16" r="15" style="fill:url(#_Linear1);"/><path d="M21.371,10.629c-2.568,-2.567 -6.738,-2.567 -9.306,0c-2.568,2.568 -2.568,6.738 0,9.306c2.568,2.568 6.738,2.568 9.306,-0c2.567,-2.568 2.567,-6.738 -0,-9.306Zm-1.415,1.415c1.788,1.787 1.788,4.689 0,6.477c-1.787,1.787 -4.689,1.787 -6.477,-0c-1.787,-1.788 -1.787,-4.69 0,-6.477c1.788,-1.788 4.69,-1.788 6.477,-0Z" style="fill:url(#_Linear2);"/><path d="M12.065,18.521l-3.069,3.069c-0.39,0.39 -0.39,1.024 0,1.414c0.39,0.39 1.024,0.39 1.414,-0l3.069,-3.069c0.391,-0.39 0.391,-1.024 0,-1.414c-0.39,-0.391 -1.024,-0.391 -1.414,-0Z" style="fill:url(#_Linear3);"/><defs><linearGradient id="_Linear1" x1="0" y1="0" x2="1" y2="0" gradientUnits="userSpaceOnUse" gradientTransform="matrix(2.44929e-15,40,-40,2.44929e-15,15.5,0.254082)"><stop offset="0" style="stop-color:#87d0fd;stop-opacity:1"/><stop offset="1" style="stop-color:#049fff;stop-opacity:1"/></linearGradient><linearGradient id="_Linear2" x1="0" y1="0" x2="1" y2="0" gradientUnits="userSpaceOnUse" gradientTransform="matrix(0,28.0697,-28.0697,0,15,8.93027)"><stop offset="0" style="stop-color:#eff4fa;stop-opacity:1"/><stop offset="1" style="stop-color:#68a4ec;stop-opacity:1"/></linearGradient><linearGradient id="_Linear3" x1="0" y1="0" x2="1" y2="0" gradientUnits="userSpaceOnUse" gradientTransform="matrix(0,28.0697,-28.0697,0,15,8.93027)"><stop offset="0" style="stop-color:#eff4fa;stop-opacity:1"/><stop offset="1" style="stop-color:#68a4ec;stop-opacity:1"/></linearGradient></defs></svg>