<?xml version="1.0" encoding="UTF-8" standalone="no"?><!DOCTYPE svg PUBLIC "-//W3C//DTD SVG 1.1//EN" "http://www.w3.org/Graphics/SVG/1.1/DTD/svg11.dtd"><svg width="100%" height="100%" viewBox="0 0 32 32" version="1.1" xmlns="http://www.w3.org/2000/svg" xmlns:xlink="http://www.w3.org/1999/xlink" xml:space="preserve" xmlns:serif="http://www.serif.com/" style="fill-rule:evenodd;clip-rule:evenodd;stroke-linejoin:round;stroke-miterlimit:2;"><path d="M31,6c0,-1.326 -0.527,-2.598 -1.464,-3.536c-0.938,-0.937 -2.21,-1.464 -3.536,-1.464c-5.322,0 -14.678,0 -20,0c-1.326,-0 -2.598,0.527 -3.536,1.464c-0.937,0.938 -1.464,2.21 -1.464,3.536c-0,5.322 -0,14.678 -0,20c-0,1.326 0.527,2.598 1.464,3.536c0.938,0.937 2.21,1.464 3.536,1.464c5.322,0 14.678,0 20,0c1.326,0 2.598,-0.527 3.536,-1.464c0.937,-0.938 1.464,-2.21 1.464,-3.536l-0,-20Z" style="fill:url(#_Linear1);"/><path d="M10.166,14.409c-0.687,0.687 -1.345,1.346 -1.944,1.945c-0.985,0.984 -1.538,2.319 -1.538,3.712c0,1.392 0.553,2.728 1.538,3.712l-0,0c0.984,0.985 2.32,1.538 3.712,1.538c1.393,-0 2.728,-0.553 3.712,-1.538c0.599,-0.599 1.258,-1.257 1.945,-1.944c0.39,-0.391 0.39,-1.024 -0,-1.415c-0.39,-0.39 -1.024,-0.39 -1.414,0c-0.688,0.688 -1.346,1.346 -1.945,1.945c-0.609,0.609 -1.436,0.952 -2.298,0.952c-0.862,-0 -1.688,-0.343 -2.298,-0.952c-0.609,-0.61 -0.952,-1.436 -0.952,-2.298c0,-0.862 0.343,-1.689 0.952,-2.298c0.599,-0.599 1.257,-1.257 1.945,-1.945c0.39,-0.39 0.39,-1.024 -0,-1.414c-0.391,-0.39 -1.024,-0.39 -1.415,0Z" style="fill:url(#_Linear2);"/><path d="M21.834,17.591c0.687,-0.687 1.345,-1.346 1.944,-1.945c0.985,-0.984 1.538,-2.319 1.538,-3.712c-0,-1.392 -0.553,-2.728 -1.538,-3.712l0,-0c-0.984,-0.985 -2.32,-1.538 -3.712,-1.538c-1.393,0 -2.728,0.553 -3.712,1.538c-0.599,0.599 -1.258,1.257 -1.945,1.944c-0.39,0.391 -0.39,1.024 0,1.415c0.39,0.39 1.024,0.39 1.414,-0c0.688,-0.688 1.346,-1.346 1.945,-1.945c0.609,-0.609 1.436,-0.952 2.298,-0.952c0.862,0 1.688,0.343 2.298,0.952c0.609,0.61 0.952,1.436 0.952,2.298c-0,0.862 -0.343,1.689 -0.952,2.298c-0.599,0.599 -1.257,1.257 -1.945,1.945c-0.39,0.39 -0.39,1.024 0,1.414c0.391,0.39 1.024,0.39 1.415,-0Z" style="fill:url(#_Linear3);"/><path d="M12.995,20.419l7.424,-7.424c0.391,-0.39 0.391,-1.024 0,-1.414c-0.39,-0.391 -1.024,-0.391 -1.414,-0l-7.424,7.424c-0.391,0.39 -0.391,1.024 -0,1.414c0.39,0.391 1.024,0.391 1.414,0Z" style="fill:url(#_Linear4);"/><defs><linearGradient id="_Linear1" x1="0" y1="0" x2="1" y2="0" gradientUnits="userSpaceOnUse" gradientTransform="matrix(2.14313e-15,35,-35,2.14313e-15,16,1.81899e-10)"><stop offset="0" style="stop-color:#87d0fd;stop-opacity:1"/><stop offset="1" style="stop-color:#049fff;stop-opacity:1"/></linearGradient><linearGradient id="_Linear2" x1="0" y1="0" x2="1" y2="0" gradientUnits="userSpaceOnUse" gradientTransform="matrix(0,32,-32,0,14,7)"><stop offset="0" style="stop-color:#fc9f62;stop-opacity:1"/><stop offset="1" style="stop-color:#e55b00;stop-opacity:1"/></linearGradient><linearGradient id="_Linear3" x1="0" y1="0" x2="1" y2="0" gradientUnits="userSpaceOnUse" gradientTransform="matrix(0,32,-32,0,14,7)"><stop offset="0" style="stop-color:#fc9f62;stop-opacity:1"/><stop offset="1" style="stop-color:#e55b00;stop-opacity:1"/></linearGradient><linearGradient id="_Linear4" x1="0" y1="0" x2="1" y2="0" gradientUnits="userSpaceOnUse" gradientTransform="matrix(0,32,-32,0,14,7)"><stop offset="0" style="stop-color:#fc9f62;stop-opacity:1"/><stop offset="1" style="stop-color:#e55b00;stop-opacity:1"/></linearGradient></defs></svg>