<?xml version="1.0" encoding="UTF-8" standalone="no"?><!DOCTYPE svg PUBLIC "-//W3C//DTD SVG 1.1//EN" "http://www.w3.org/Graphics/SVG/1.1/DTD/svg11.dtd"><svg width="100%" height="100%" viewBox="0 0 32 32" version="1.1" xmlns="http://www.w3.org/2000/svg" xmlns:xlink="http://www.w3.org/1999/xlink" xml:space="preserve" xmlns:serif="http://www.serif.com/" style="fill-rule:evenodd;clip-rule:evenodd;stroke-linejoin:round;stroke-miterlimit:2;"><path d="M31,6c0,-1.326 -0.527,-2.598 -1.464,-3.536c-0.938,-0.937 -2.21,-1.464 -3.536,-1.464c-5.322,0 -14.678,0 -20,0c-1.326,-0 -2.598,0.527 -3.536,1.464c-0.937,0.938 -1.464,2.21 -1.464,3.536c-0,5.322 -0,14.678 -0,20c-0,1.326 0.527,2.598 1.464,3.536c0.938,0.937 2.21,1.464 3.536,1.464c5.322,0 14.678,0 20,0c1.326,0 2.598,-0.527 3.536,-1.464c0.937,-0.938 1.464,-2.21 1.464,-3.536l-0,-20Z" style="fill:url(#_Linear1);"/><path d="M16,6.636c-5.068,0 -9.182,4.115 -9.182,9.182c0,5.068 4.114,9.182 9.182,9.182c5.068,-0 9.182,-4.114 9.182,-9.182c-0,-5.067 -4.114,-9.182 -9.182,-9.182Zm-0,2c3.964,0 7.182,3.218 7.182,7.182c-0,3.964 -3.218,7.182 -7.182,7.182c-3.964,-0 -7.182,-3.218 -7.182,-7.182c0,-3.964 3.218,-7.182 7.182,-7.182Z" style="fill:url(#_Linear2);"/><circle cx="16" cy="16" r="2" style="fill:url(#_Linear3);"/><path d="M15,6l-0,3.682c0,0.552 0.448,1 1,1c0.552,-0 1,-0.448 1,-1l-0,-3.682c0,-0.552 -0.448,-1 -1,-1c-0.552,-0 -1,0.448 -1,1Z" style="fill:url(#_Linear4);"/><path d="M15,22.159l-0,3.682c0,0.552 0.448,1 1,1c0.552,-0 1,-0.448 1,-1l-0,-3.682c0,-0.552 -0.448,-1 -1,-1c-0.552,0 -1,0.448 -1,1Z" style="fill:url(#_Linear5);"/><path d="M22.159,17l3.682,0c0.552,0 1,-0.448 1,-1c-0,-0.552 -0.448,-1 -1,-1l-3.682,0c-0.552,0 -1,0.448 -1,1c0,0.552 0.448,1 1,1Z" style="fill:url(#_Linear6);"/><path d="M9.841,15l-3.682,0c-0.552,0 -1,0.448 -1,1c0,0.552 0.448,1 1,1l3.682,0c0.552,0 1,-0.448 1,-1c-0,-0.552 -0.448,-1 -1,-1Z" style="fill:url(#_Linear7);"/><defs><linearGradient id="_Linear1" x1="0" y1="0" x2="1" y2="0" gradientUnits="userSpaceOnUse" gradientTransform="matrix(2.0819e-15,34,-34,2.0819e-15,16,0.999991)"><stop offset="0" style="stop-color:#87d0fd;stop-opacity:1"/><stop offset="1" style="stop-color:#049fff;stop-opacity:1"/></linearGradient><linearGradient id="_Linear2" x1="0" y1="0" x2="1" y2="0" gradientUnits="userSpaceOnUse" gradientTransform="matrix(4.62443e-15,75.5227,-75.5227,4.62443e-15,16,5.47727)"><stop offset="0" style="stop-color:#eff4fa;stop-opacity:1"/><stop offset="1" style="stop-color:#68a4ec;stop-opacity:1"/></linearGradient><linearGradient id="_Linear3" x1="0" y1="0" x2="1" y2="0" gradientUnits="userSpaceOnUse" gradientTransform="matrix(4.62443e-15,75.5227,-75.5227,4.62443e-15,16,5.47727)"><stop offset="0" style="stop-color:#eff4fa;stop-opacity:1"/><stop offset="1" style="stop-color:#68a4ec;stop-opacity:1"/></linearGradient><linearGradient id="_Linear4" x1="0" y1="0" x2="1" y2="0" gradientUnits="userSpaceOnUse" gradientTransform="matrix(4.62443e-15,75.5227,-75.5227,4.62443e-15,16,5.47727)"><stop offset="0" style="stop-color:#eff4fa;stop-opacity:1"/><stop offset="1" style="stop-color:#68a4ec;stop-opacity:1"/></linearGradient><linearGradient id="_Linear5" x1="0" y1="0" x2="1" y2="0" gradientUnits="userSpaceOnUse" gradientTransform="matrix(4.62443e-15,75.5227,-75.5227,4.62443e-15,16,5.47727)"><stop offset="0" style="stop-color:#eff4fa;stop-opacity:1"/><stop offset="1" style="stop-color:#68a4ec;stop-opacity:1"/></linearGradient><linearGradient id="_Linear6" x1="0" y1="0" x2="1" y2="0" gradientUnits="userSpaceOnUse" gradientTransform="matrix(4.62443e-15,75.5227,-75.5227,4.62443e-15,16,5.47727)"><stop offset="0" style="stop-color:#eff4fa;stop-opacity:1"/><stop offset="1" style="stop-color:#68a4ec;stop-opacity:1"/></linearGradient><linearGradient id="_Linear7" x1="0" y1="0" x2="1" y2="0" gradientUnits="userSpaceOnUse" gradientTransform="matrix(4.62443e-15,75.5227,-75.5227,4.62443e-15,16,5.47727)"><stop offset="0" style="stop-color:#eff4fa;stop-opacity:1"/><stop offset="1" style="stop-color:#68a4ec;stop-opacity:1"/></linearGradient></defs></svg>