<?xml version="1.0" encoding="UTF-8" standalone="no"?><!DOCTYPE svg PUBLIC "-//W3C//DTD SVG 1.1//EN" "http://www.w3.org/Graphics/SVG/1.1/DTD/svg11.dtd"><svg width="100%" height="100%" viewBox="0 0 32 32" version="1.1" xmlns="http://www.w3.org/2000/svg" xmlns:xlink="http://www.w3.org/1999/xlink" xml:space="preserve" xmlns:serif="http://www.serif.com/" style="fill-rule:evenodd;clip-rule:evenodd;stroke-linejoin:round;stroke-miterlimit:2;"><path d="M31,6c0,-1.326 -0.527,-2.598 -1.464,-3.536c-0.938,-0.937 -2.21,-1.464 -3.536,-1.464c-5.322,0 -14.678,0 -20,0c-1.326,-0 -2.598,0.527 -3.536,1.464c-0.937,0.938 -1.464,2.21 -1.464,3.536c0,5.322 0,14.678 0,20c-0,1.326 0.527,2.598 1.464,3.536c0.938,0.937 2.21,1.464 3.536,1.464c5.322,0 14.678,0 20,0c1.326,0 2.598,-0.527 3.536,-1.464c0.937,-0.938 1.464,-2.21 1.464,-3.536l-0,-20Z" style="fill:url(#_Linear1);"/><path d="M7,7l0,7c-0,0.552 -0.448,1 -1,1c-0.552,0 -1,-0.448 -1,-1l0,-8c-0,-0.552 0.448,-1 1,-1l8,0c0.552,0 1,0.448 1,1c-0,0.552 -0.448,1 -1,1l-7,0Z" style="fill:url(#_Linear2);"/><path d="M25,7l-7,0c-0.552,0 -1,-0.448 -1,-1c-0,-0.552 0.448,-1 1,-1l8,0c0.552,0 1,0.448 1,1l0,8c0,0.552 -0.448,1 -1,1c-0.552,0 -1,-0.448 -1,-1l0,-7Z" style="fill:url(#_Linear3);"/><path d="M7,25l7,0c0.552,0 1,0.448 1,1c-0,0.552 -0.448,1 -1,1l-8,0c-0.552,0 -1,-0.448 -1,-1l0,-8c-0,-0.552 0.448,-1 1,-1c0.552,-0 1,0.448 1,1l0,7Z" style="fill:url(#_Linear4);"/><path d="M25,25l-0,-7c0,-0.552 0.448,-1 1,-1c0.552,0 1,0.448 1,1l-0,8c0,0.552 -0.448,1 -1,1l-8,0c-0.552,0 -1,-0.448 -1,-1c-0,-0.552 0.448,-1 1,-1l7,0Z" style="fill:url(#_Linear5);"/><defs><linearGradient id="_Linear1" x1="0" y1="0" x2="1" y2="0" gradientUnits="userSpaceOnUse" gradientTransform="matrix(1.95944e-15,32,-32,1.95944e-15,16,0.999991)"><stop offset="0" style="stop-color:#87d0fd;stop-opacity:1"/><stop offset="1" style="stop-color:#049fff;stop-opacity:1"/></linearGradient><linearGradient id="_Linear2" x1="0" y1="0" x2="1" y2="0" gradientUnits="userSpaceOnUse" gradientTransform="matrix(2.97266e-15,48.5472,-48.5472,2.97266e-15,16,5)"><stop offset="0" style="stop-color:#fc9f62;stop-opacity:1"/><stop offset="1" style="stop-color:#e55b00;stop-opacity:1"/></linearGradient><linearGradient id="_Linear3" x1="0" y1="0" x2="1" y2="0" gradientUnits="userSpaceOnUse" gradientTransform="matrix(2.97266e-15,48.5472,-48.5472,2.97266e-15,16,5)"><stop offset="0" style="stop-color:#fc9f62;stop-opacity:1"/><stop offset="1" style="stop-color:#e55b00;stop-opacity:1"/></linearGradient><linearGradient id="_Linear4" x1="0" y1="0" x2="1" y2="0" gradientUnits="userSpaceOnUse" gradientTransform="matrix(2.97266e-15,48.5472,-48.5472,2.97266e-15,16,5)"><stop offset="0" style="stop-color:#fc9f62;stop-opacity:1"/><stop offset="1" style="stop-color:#e55b00;stop-opacity:1"/></linearGradient><linearGradient id="_Linear5" x1="0" y1="0" x2="1" y2="0" gradientUnits="userSpaceOnUse" gradientTransform="matrix(2.97266e-15,48.5472,-48.5472,2.97266e-15,16,5)"><stop offset="0" style="stop-color:#fc9f62;stop-opacity:1"/><stop offset="1" style="stop-color:#e55b00;stop-opacity:1"/></linearGradient></defs></svg>