<?xml version="1.0" encoding="UTF-8" standalone="no"?><!DOCTYPE svg PUBLIC "-//W3C//DTD SVG 1.1//EN" "http://www.w3.org/Graphics/SVG/1.1/DTD/svg11.dtd"><svg width="100%" height="100%" viewBox="0 0 32 32" version="1.1" xmlns="http://www.w3.org/2000/svg" xmlns:xlink="http://www.w3.org/1999/xlink" xml:space="preserve" xmlns:serif="http://www.serif.com/" style="fill-rule:evenodd;clip-rule:evenodd;stroke-linejoin:round;stroke-miterlimit:2;"><circle cx="16" cy="16" r="15" style="fill:url(#_Linear1);"/><path d="M18.753,23.46l0,-8.138c0,-1.477 -1.233,-2.677 -2.753,-2.677c-1.52,0 -2.753,1.2 -2.753,2.677l-0,8.138c-0,1.477 1.233,2.676 2.753,2.676c1.52,0 2.753,-1.199 2.753,-2.676Zm-2.753,-17.596c-1.52,-0 -2.753,1.199 -2.753,2.676c-0,1.478 1.233,2.677 2.753,2.677c1.52,0 2.753,-1.199 2.753,-2.677c0,-1.477 -1.233,-2.676 -2.753,-2.676Z" style="fill:url(#_Linear2);"/><defs><linearGradient id="_Linear1" x1="0" y1="0" x2="1" y2="0" gradientUnits="userSpaceOnUse" gradientTransform="matrix(3.33376e-15,54.4444,-54.4444,3.33376e-15,15,0.555556)"><stop offset="0" style="stop-color:#87d0fd;stop-opacity:1"/><stop offset="1" style="stop-color:#049fff;stop-opacity:1"/></linearGradient><linearGradient id="_Linear2" x1="0" y1="0" x2="1" y2="0" gradientUnits="userSpaceOnUse" gradientTransform="matrix(4.82498e-15,76.6091,-78.7979,4.69095e-15,41.7704,7.34545)"><stop offset="0" style="stop-color:#eff4fa;stop-opacity:1"/><stop offset="1" style="stop-color:#68a4ec;stop-opacity:1"/></linearGradient></defs></svg>