<?xml version="1.0" encoding="UTF-8" standalone="no"?><!DOCTYPE svg PUBLIC "-//W3C//DTD SVG 1.1//EN" "http://www.w3.org/Graphics/SVG/1.1/DTD/svg11.dtd"><svg width="100%" height="100%" viewBox="0 0 32 32" version="1.1" xmlns="http://www.w3.org/2000/svg" xmlns:xlink="http://www.w3.org/1999/xlink" xml:space="preserve" xmlns:serif="http://www.serif.com/" style="fill-rule:evenodd;clip-rule:evenodd;stroke-linejoin:round;stroke-miterlimit:2;"><circle cx="16" cy="16.069" r="14.931" style="fill:url(#_Linear1);"/><path d="M22.145,19.717c-1.26,2.076 -3.541,3.465 -6.145,3.465c-2.604,-0 -4.885,-1.389 -6.145,-3.465c-0.286,-0.472 -0.902,-0.623 -1.374,-0.336c-0.472,0.286 -0.622,0.902 -0.336,1.373c1.61,2.654 4.527,4.428 7.855,4.428c3.328,-0 6.245,-1.774 7.855,-4.428c0.286,-0.471 0.136,-1.087 -0.336,-1.373c-0.472,-0.287 -1.088,-0.136 -1.374,0.336Z" style="fill:url(#_Linear2);"/><circle cx="11" cy="11.5" r="2" style="fill:url(#_Linear3);"/><circle cx="21" cy="11.5" r="2" style="fill:url(#_Linear4);"/><defs><linearGradient id="_Linear1" x1="0" y1="0" x2="1" y2="0" gradientUnits="userSpaceOnUse" gradientTransform="matrix(2.94998e-15,48.1768,-48.1768,2.94998e-15,15,0.380009)"><stop offset="0" style="stop-color:#87d0fd;stop-opacity:1"/><stop offset="1" style="stop-color:#049fff;stop-opacity:1"/></linearGradient><linearGradient id="_Linear2" x1="0" y1="0" x2="1" y2="0" gradientUnits="userSpaceOnUse" gradientTransform="matrix(4.86797e-15,79.5,-79.5,4.86797e-15,-8,6.5)"><stop offset="0" style="stop-color:#eff4fa;stop-opacity:1"/><stop offset="1" style="stop-color:#68a4ec;stop-opacity:1"/></linearGradient><linearGradient id="_Linear3" x1="0" y1="0" x2="1" y2="0" gradientUnits="userSpaceOnUse" gradientTransform="matrix(4.86797e-15,79.5,-79.5,4.86797e-15,-8,6.5)"><stop offset="0" style="stop-color:#eff4fa;stop-opacity:1"/><stop offset="1" style="stop-color:#68a4ec;stop-opacity:1"/></linearGradient><linearGradient id="_Linear4" x1="0" y1="0" x2="1" y2="0" gradientUnits="userSpaceOnUse" gradientTransform="matrix(4.86797e-15,79.5,-79.5,4.86797e-15,-8,6.5)"><stop offset="0" style="stop-color:#eff4fa;stop-opacity:1"/><stop offset="1" style="stop-color:#68a4ec;stop-opacity:1"/></linearGradient></defs></svg>