<?xml version="1.0" encoding="UTF-8" standalone="no"?><!DOCTYPE svg PUBLIC "-//W3C//DTD SVG 1.1//EN" "http://www.w3.org/Graphics/SVG/1.1/DTD/svg11.dtd"><svg width="100%" height="100%" viewBox="0 0 32 32" version="1.1" xmlns="http://www.w3.org/2000/svg" xmlns:xlink="http://www.w3.org/1999/xlink" xml:space="preserve" xmlns:serif="http://www.serif.com/" style="fill-rule:evenodd;clip-rule:evenodd;stroke-linejoin:round;stroke-miterlimit:2;"><path d="M19.702,12.265l-0,7.597l1,-0c-0,-0 -0,1 -0,1c2.648,-0 4.798,-2.151 4.798,-4.799c0,-2.648 -2.15,-4.798 -4.798,-4.798l-0,1c-0,-0 -1,-0 -1,-0Z" style="fill:url(#_Linear1);"/><path d="M28,17l2,-0c0.552,0 1,-0.448 1,-1c0,-0.552 -0.448,-1 -1,-1l-2,-0c-0.552,0 -1,0.448 -1,1c0,0.552 0.448,1 1,1Z" style="fill:url(#_Linear2);"/><path d="M27.166,10.824l1,-1.732c0.276,-0.478 0.112,-1.09 -0.366,-1.366c-0.478,-0.276 -1.09,-0.112 -1.366,0.366l-1,1.732c-0.276,0.478 -0.112,1.09 0.366,1.366c0.478,0.276 1.09,0.112 1.366,-0.366Z" style="fill:url(#_Linear3);"/><path d="M25.434,22.176l1,1.732c0.276,0.478 0.888,0.642 1.366,0.366c0.478,-0.276 0.642,-0.888 0.366,-1.366l-1,-1.732c-0.276,-0.478 -0.888,-0.642 -1.366,-0.366c-0.478,0.276 -0.642,0.888 -0.366,1.366Z" style="fill:url(#_Linear4);"/><path d="M21.702,6.547c-0,-1.05 -0.55,-2.024 -1.449,-2.568c-0.899,-0.543 -2.017,-0.576 -2.947,-0.087c-3.384,1.779 -8.49,4.463 -8.49,4.463c-0.329,0.172 -0.534,0.513 -0.534,0.885l-0,13.52c-0,0.372 0.205,0.713 0.534,0.885c0,0 5.106,2.684 8.49,4.463c0.93,0.489 2.048,0.456 2.947,-0.087c0.899,-0.544 1.449,-1.518 1.449,-2.568l-0,-18.906Z" style="fill:url(#_Linear5);"/><path d="M9.164,8.172l0.836,-0.44c0,0 0,16.536 0,16.536l-0.836,-0.44c-0.044,0.006 -0.088,0.01 -0.134,0.01c0,-0 -0.16,-0 -0.432,-0c-4.196,-0 -7.598,-3.509 -7.598,-7.836c0,-0.001 0,-0.003 0,-0.004c-0,-4.327 3.402,-7.836 7.598,-7.836l0.432,0c0.046,0 0.09,0.004 0.134,0.01Z" style="fill:url(#_Linear6);"/><defs><linearGradient id="_Linear1" x1="0" y1="0" x2="1" y2="0" gradientUnits="userSpaceOnUse" gradientTransform="matrix(-22.5,2.75546e-15,-2.75546e-15,-22.5,25.5,16.0693)"><stop offset="0" style="stop-color:#eff4fa;stop-opacity:1"/><stop offset="1" style="stop-color:#68a4ec;stop-opacity:1"/></linearGradient><linearGradient id="_Linear2" x1="0" y1="0" x2="1" y2="0" gradientUnits="userSpaceOnUse" gradientTransform="matrix(-29,3.55148e-15,-3.55148e-15,-29,31,16)"><stop offset="0" style="stop-color:#fc9f62;stop-opacity:1"/><stop offset="1" style="stop-color:#e55b00;stop-opacity:1"/></linearGradient><linearGradient id="_Linear3" x1="0" y1="0" x2="1" y2="0" gradientUnits="userSpaceOnUse" gradientTransform="matrix(-29,3.55271e-15,-3.55271e-15,-29,31,16)"><stop offset="0" style="stop-color:#fc9f62;stop-opacity:1"/><stop offset="1" style="stop-color:#e55b00;stop-opacity:1"/></linearGradient><linearGradient id="_Linear4" x1="0" y1="0" x2="1" y2="0" gradientUnits="userSpaceOnUse" gradientTransform="matrix(-29,3.55271e-15,-3.55271e-15,-29,31,16)"><stop offset="0" style="stop-color:#fc9f62;stop-opacity:1"/><stop offset="1" style="stop-color:#e55b00;stop-opacity:1"/></linearGradient><linearGradient id="_Linear5" x1="0" y1="0" x2="1" y2="0" gradientUnits="userSpaceOnUse" gradientTransform="matrix(-36.7016,4.49465e-15,-4.49465e-15,-36.7016,21.7016,16)"><stop offset="0" style="stop-color:#87d0fd;stop-opacity:1"/><stop offset="1" style="stop-color:#049fff;stop-opacity:1"/></linearGradient><linearGradient id="_Linear6" x1="0" y1="0" x2="1" y2="0" gradientUnits="userSpaceOnUse" gradientTransform="matrix(31.0693,0,0,31.0693,0.930685,16)"><stop offset="0" style="stop-color:#fc9f62;stop-opacity:1"/><stop offset="1" style="stop-color:#e55b00;stop-opacity:1"/></linearGradient></defs></svg>