<svg xmlns="http://www.w3.org/2000/svg"  viewBox="0 0 48 48" width="48px" height="48px"><rect width="30" height="38" x="9" y="5" fill="#3ddab4"/><rect width="18" height="3" x="16" y="29" fill="#00b569"/><rect width="18" height="3" x="16" y="35" fill="#00b569"/><path fill="#f5bc00" d="M9,39H8c-2.206,0-4-1.794-4-4s1.794-4,4-4h5v3H8c-0.551,0-1,0.449-1,1s0.449,1,1,1h1V39z"/><path fill="#f5bc00" d="M9,28H8c-2.206,0-4-1.794-4-4s1.794-4,4-4h5v3H8c-0.551,0-1,0.449-1,1s0.449,1,1,1h1V28z"/><path fill="#f5bc00" d="M9,17H8c-2.206,0-4-1.794-4-4s1.794-4,4-4h5v3H8c-0.551,0-1,0.449-1,1s0.449,1,1,1h1V17z"/><rect width="4" height="3" x="9" y="31" fill="#eb7900"/><rect width="4" height="3" x="9" y="20" fill="#eb7900"/><rect width="4" height="3" x="9" y="9" fill="#eb7900"/><rect width="3" height="7" x="18" y="18" fill="#6c19ff"/><rect width="7" height="7" x="16" y="13" fill="#2100c4"/><polygon fill="#6c19ff" points="31,24 23,20 23,13 31,9"/><rect width="3" height="17" x="31" y="8" fill="#2100c4"/></svg>