<svg xmlns="http://www.w3.org/2000/svg"  viewBox="0 0 48 48" width="48px" height="48px"><polygon fill="#3ddab4" points="43,13 34,5 34,21"/><rect width="3" height="6" x="34" y="10" fill="#00b569"/><polygon fill="#3ddab4" points="5,35 14,43 14,27"/><rect width="3" height="6" x="11" y="32" fill="#00b569" transform="rotate(-180 12.5 35)"/><path fill="#3ddab4" d="M14,21H8c0-6.065,4.935-11,11-11h15v6H19C16.243,16,14,18.243,14,21z"/><path fill="#3ddab4" d="M29,38H14v-6h15c2.757,0,5-2.243,5-5h6C40,33.065,35.065,38,29,38z"/></svg>