<svg xmlns="http://www.w3.org/2000/svg"  viewBox="0 0 48 48" width="48px" height="48px"><polygon fill="#6c19ff" points="9.714,12.344 6.188,8.953 7.575,7.512 9.663,9.52 15.829,3.142 17.267,4.532"/><polygon fill="#6c19ff" points="9.714,42.344 6.188,38.953 7.575,37.512 9.663,39.52 15.829,33.142 17.267,34.532"/><polygon fill="#6c19ff" points="9.714,27.344 6.188,23.953 7.575,22.512 9.663,24.52 15.829,18.142 17.267,19.532"/><path fill="#3ddab4" d="M15,14H5V4h10V14z"/><path fill="#3ddab4" d="M15,44H5V34h10V44z"/><path fill="#3ddab4" d="M15,29H5V19h10V29z"/><polygon fill="#2100c4" points="15,4 14.999,4 9.663,9.52 7.575,7.512 6.188,8.953 9.714,12.344 15,6.876"/><polygon fill="#2100c4" points="15,34 14.999,34 9.663,39.52 7.575,37.512 6.188,38.953 9.714,42.344 15,36.876"/><polygon fill="#2100c4" points="15,19 14.999,19 9.663,24.52 7.575,22.512 6.188,23.953 9.714,27.344 15,21.876"/><path fill="#3dd9eb" d="M43,11H21V7h22V11z"/><path fill="#3dd9eb" d="M43,26H21v-4h22V26z"/><path fill="#3dd9eb" d="M43,41H21v-4h22V41z"/></svg>