<svg xmlns="http://www.w3.org/2000/svg"  viewBox="0 0 48 48" width="48px" height="48px"><rect width="12" height="12" x="6" y="4" fill="#3dd9eb"/><rect width="12" height="12" x="6" y="18" fill="#3ddab4"/><rect width="12" height="12" x="6" y="32" fill="#f5bc00"/><path fill="#3dd9eb" d="M22,22h20v4H22V22z"/><path fill="#3dd9eb" d="M22,36h20v4H22V36z"/><path fill="#3dd9eb" d="M22,8h20v4H22V8z"/><polygon fill="#6c19ff" points="6,11.8 6,16 16.6,16 9.7,6.8"/><polygon fill="#6c19ff" points="13.9,9.2 9,15.9 9,16 18,16 18,14.7"/><polygon fill="#2100c4" points="16.6,16 12.8,10.8 9,15.9 9,16 13.8,16"/><path fill="#f55376" d="M13,37.5L13,37.5c0.1-0.5,0.1-1.1,0-1.6c-0.5-1.5-2-2.3-3.5-1.8c-1.4,0.5-2.2,2.1-1.8,3.5 c0.2,0.5,0.5,1,0.9,1.3l0,0l3.4,3L13,37.5z"/><path fill="#f55376" d="M11,37.5L11,37.5c-0.1-0.5-0.1-1.1,0.1-1.6c0.5-1.5,2-2.3,3.5-1.8c1.4,0.5,2.2,2.1,1.7,3.6 c-0.2,0.5-0.5,1-0.9,1.3l0,0L12,42L11,37.5z"/><path fill="#eb0000" d="M12,42l1-4.5l0,0c0.1-0.5,0.1-1.1,0-1.6c-0.2-0.6-0.5-1-0.9-1.4c-0.4,0.3-0.8,0.8-0.9,1.3 c-0.2,0.5-0.2,1.1-0.1,1.6l0,0L12,42z"/><path fill="#fadb00" d="M9,21L9,21c0.4-0.4,1-0.4,1.4,0l4.6,4.6c0.4,0.4,0.4,1,0,1.4h0c-0.4,0.4-1,0.4-1.4,0L9,22.4 C8.6,22,8.6,21.4,9,21z"/><path fill="#fadb00" d="M12,28L12,28c-0.6,0-1-0.4-1-1v-6c0-0.6,0.4-1,1-1h0c0.6,0,1,0.4,1,1v6C13,27.6,12.6,28,12,28z"/><path fill="#fadb00" d="M9,27L9,27c-0.4-0.4-0.4-1,0-1.4l4.6-4.6c0.4-0.4,1-0.4,1.4,0h0c0.4,0.4,0.4,1,0,1.4L10.4,27 C10,27.4,9.4,27.4,9,27z"/><path fill="#fadb00" d="M8,24L8,24c0-0.6,0.4-1,1-1h6c0.6,0,1,0.4,1,1v0c0,0.6-0.4,1-1,1H9C8.4,25,8,24.6,8,24z"/><polygon fill="#f5bc00" points="11.6,25 14.4,25 12.4,23 9.6,23"/><polygon fill="#f5bc00" points="11,24.4 13,26.4 13,23.6 11,21.6"/><g><polygon fill="#f5bc00" points="11,26.4 13,24.4 13,21.6 11,23.6"/></g><g><polygon fill="#f5bc00" points="9.6,25 12.4,25 14.4,23 11.6,23"/></g></svg>