<svg xmlns="http://www.w3.org/2000/svg"  viewBox="0 0 48 48" width="48px" height="48px"><polygon fill="#3ddab4" points="47.982,11.901 45.083,9.146 22.232,33.195 20.075,31.11 38.327,11.901 35.428,9.146 17.199,28.33 12.453,23.742 9.673,26.618 14.444,31.23 12.577,33.195 2.798,23.742 0.018,26.618 9.822,36.095 9.818,36.099 10.331,36.587 12.664,38.843 12.684,38.823 12.717,38.854 17.32,34.01 19.477,36.095 19.472,36.099 19.986,36.587 22.319,38.843 22.338,38.823 22.372,38.854"/><polygon fill="#00b569" points="17.32,34.01 20.075,31.11 17.199,28.33 14.444,31.23"/></svg>