<svg xmlns="http://www.w3.org/2000/svg"  viewBox="0 0 48 48" width="48px" height="48px"><path fill="#3ddab4" d="M37,36c-3.86,0-7-3.141-7-7V14h4v15c0,1.654,1.346,3,3,3s3-1.346,3-3v-5.588h4V29 C44,32.859,40.86,36,37,36z"/><path fill="#3ddab4" d="M24,34c-5.514,0-10-4.486-10-10s4.486-10,10-10s10,4.486,10,10S29.514,34,24,34z M24,18 c-3.309,0-6,2.691-6,6s2.691,6,6,6s6-2.691,6-6S27.309,18,24,18z"/><path fill="#3ddab4" d="M24,44C12.972,44,4,35.028,4,24S12.972,4,24,4s20,8.972,20,20h-4c0-8.822-7.178-16-16-16 S8,15.178,8,24s7.178,16,16,16V44z"/><path fill="#00b569" d="M30,16.019V29c0,0.913,0.181,1.783,0.5,2.584C32.638,29.748,34,27.032,34,24 C34,20.739,32.423,17.846,30,16.019z"/></svg>