<svg xmlns="http://www.w3.org/2000/svg"  viewBox="0 0 48 48" width="48px" height="48px"><path fill="#3dd9eb" d="M7.9,35.9l4.2,4.2l9-9l-4.2-4.2L7.9,35.9z"/><polygon fill="#3dd9eb" points="6,42 6,30.9 17,42"/><path fill="#3dd9eb" d="M40.1,35.9l-4.2,4.2l-9-9l4.2-4.2L40.1,35.9z"/><polygon fill="#3dd9eb" points="42,42 42,30.9 31,42"/><path fill="#3dd9eb" d="M40.1,12.1l-4.2-4.2l-9,9l4.2,4.2L40.1,12.1z"/><polygon fill="#3dd9eb" points="42,6 42,17.1 31,6"/><path fill="#3dd9eb" d="M7.9,12.1l4.2-4.2l9,9l-4.2,4.2L7.9,12.1z"/><polygon fill="#3dd9eb" points="6,6 6,17.1 17,6"/><polygon fill="#00b3d7" points="12.1,7.9 7.9,12.1 9.4,13.7 13.6,9.4"/><polygon fill="#00b3d7" points="34.4,9.4 38.6,13.7 40.1,12.1 35.9,7.9"/><polygon fill="#00b3d7" points="35.9,40.1 40.1,35.9 38.6,34.3 34.4,38.6"/><polygon fill="#00b3d7" points="9.4,34.3 7.9,35.9 12.1,40.1 13.6,38.6"/></svg>