<svg xmlns="http://www.w3.org/2000/svg"  viewBox="0 0 48 48" width="48px" height="48px"><polygon fill="#3dd9eb" points="10,33 6,33 6,42 15,42 15,38 10,38"/><polygon fill="#3dd9eb" points="38,38 33,38 33,42 42,42 42,33 38,33"/><polygon fill="#3dd9eb" points="33,6 33,10 38,10 38,15 42,15 42,6"/><polygon fill="#3dd9eb" points="6,6 6,15 10,15 10,10 15,10 15,6"/><rect width="4" height="4" x="6" y="6" fill="#00b3d7"/><rect width="4" height="4" x="38" y="6" fill="#00b3d7"/><rect width="4" height="4" x="6" y="38" fill="#00b3d7"/><rect width="4" height="4" x="38" y="38" fill="#00b3d7"/><path fill="#3dd9eb" d="M23.999,34c-2.7,0-5.35-0.846-7.46-2.381l2.354-3.234C20.324,29.426,22.138,30,23.999,30 c1.862,0,3.676-0.574,5.108-1.616l2.354,3.234C29.319,33.176,26.739,34,23.999,34z"/><g><rect width="4" height="4" x="14" y="16" fill="#3dd9eb"/></g><g><rect width="4" height="4" x="30" y="16" fill="#3dd9eb"/></g><g><rect width="4" height="9" x="22" y="17" fill="#3dd9eb"/></g></svg>