<svg xmlns="http://www.w3.org/2000/svg"  viewBox="0 0 48 48" width="48px" height="48px"><path fill="#00b3d7" d="M26,14h-4V4h4V14z"/><path fill="#3dd9eb" d="M22,34h4v10h-4V34z"/><path fill="#00b3d7" d="M32.485,18.343l-2.828-2.828l7.071-7.071l2.828,2.828L32.485,18.343z"/><path fill="#7debf5" d="M11.272,39.556l-2.828-2.828l7.071-7.071l2.828,2.828L11.272,39.556z"/><path fill="#00b3d7" d="M34,26v-4h10v4H34z"/><path fill="#7debf5" d="M14,22v4H4v-4H14z"/><path fill="#3dd9eb" d="M29.657,32.485l2.828-2.828l7.071,7.071l-2.828,2.828L29.657,32.485z"/><path fill="#7debf5" d="M8.444,11.272l2.828-2.828l7.071,7.071l-2.828,2.828L8.444,11.272z"/></svg>