<svg xmlns="http://www.w3.org/2000/svg"  viewBox="0 0 48 48" width="48px" height="48px"><path fill="#6c19ff" d="M45,15H13V9h32V15z"/><path fill="#3dd9eb" d="M9,15H3V9h6V15z"/><path fill="#6c19ff" d="M45,27H13v-6h32V27z"/><path fill="#3dd9eb" d="M9,27H3v-6h6V27z"/><path fill="#6c19ff" d="M45,39H13v-6h32V39z"/><path fill="#3dd9eb" d="M9,39H3v-6h6V39z"/><rect width="25" height="3" x="20" y="12" fill="#2100c4"/><rect width="25" height="3" x="20" y="24" fill="#2100c4"/><rect width="25" height="3" x="20" y="36" fill="#2100c4"/><path fill="#00b3d7" d="M9,15H3v-3h6V15z"/><path fill="#00b3d7" d="M9,27H3v-3h6V27z"/><path fill="#00b3d7" d="M9,39H3v-3h6V39z"/></svg>