<svg xmlns="http://www.w3.org/2000/svg"  viewBox="0 0 48 48" width="48px" height="48px"><rect width="10" height="22" x="26" y="22" fill="#6c19ff"/><path fill="#3dd9eb" d="M36,5.2V14H26V5.2c-3.562,1.821-6,5.526-6,9.8c0,6.075,4.925,11,11,11s11-4.925,11-11 C42,10.725,39.562,7.02,36,5.2z"/><polygon fill="#3dd9eb" points="14,5 8,5 8,12 9,12 9,28 13,28 13,12 14,12"/><rect width="10" height="20" x="6" y="24" fill="#f55376"/><rect width="4" height="4" x="9" y="24" fill="#eb0000"/><path fill="#00b3d7" d="M31,26c1.8,0,3.5-0.433,5-1.2V22H26v2.8C27.5,25.567,29.2,26,31,26z"/></svg>