<svg xmlns="http://www.w3.org/2000/svg"  viewBox="0 0 48 48" width="48px" height="48px"><path fill="#3ddab4" d="M6,42h17V25H6V42z"/><path fill="#fadb00" d="M25,6h17c0,0,0,0,0,0v17c0,0,0,0,0,0H25V6z"/><path fill="#6c19ff" d="M25,42h17V25H25V42z"/><circle cx="31" cy="32" r="4" fill="#f5bc00"/><path fill="#3dd9eb" d="M40,34.8c0-2.3-1.9-4.2-4.2-4.2c-2.1,0-3.9,1.6-4.1,3.6c-0.4-0.2-0.8-0.3-1.2-0.3c-1.4,0-2.5,1.1-2.5,2.5 c0,1.3,1,2.4,2.3,2.5v0H36v0C38.2,38.9,40,37.1,40,34.8z"/><path fill="#00b3d7" d="M31,36c2.2,0,4-1.8,4-4c0-0.4-0.1-0.8-0.2-1.2c-1.6,0.4-2.9,1.8-3.1,3.5c-0.4-0.2-0.8-0.3-1.2-0.3 c-0.9,0-1.6,0.4-2.1,1.1C29.1,35.7,30,36,31,36z"/><path fill="#fadb00" d="M14.5,40L14.5,40c-0.8,0-1.5-0.7-1.5-1.5v-10c0-0.8,0.7-1.5,1.5-1.5h0c0.8,0,1.5,0.7,1.5,1.5v10 C16,39.3,15.3,40,14.5,40z"/><path fill="#fadb00" d="M9.9,38.1L9.9,38.1c-0.6-0.6-0.6-1.5,0-2.1l7.1-7.1c0.6-0.6,1.5-0.6,2.1,0l0,0c0.6,0.6,0.6,1.5,0,2.1L12,38.1 C11.4,38.7,10.5,38.7,9.9,38.1z"/><path fill="#fadb00" d="M9.9,28.9L9.9,28.9c0.6-0.6,1.5-0.6,2.1,0l7.1,7.1c0.6,0.6,0.6,1.5,0,2.1l0,0c-0.6,0.6-1.5,0.6-2.1,0L9.9,31 C9.3,30.4,9.3,29.5,9.9,28.9z"/><path fill="#fadb00" d="M8,33.5L8,33.5C8,32.7,8.7,32,9.5,32h10c0.8,0,1.5,0.7,1.5,1.5l0,0c0,0.8-0.7,1.5-1.5,1.5h-10 C8.7,35,8,34.3,8,33.5z"/><polygon fill="#f5bc00" points="16,35 18.1,35 16.6,33.5 18.1,32 16,32 16,29.9 14.5,31.4 13,29.9 13,32 10.9,32 12.4,33.5 10.9,35 13,35 13,37.1 14.5,35.6 16,37.1"/><path fill="#f55376" d="M34.9,13.9L34.9,13.9c0.2-0.7,0.2-1.5-0.1-2.2c-0.6-2-2.8-3.1-4.8-2.5c-2,0.7-3.1,2.8-2.4,4.9 c0.2,0.7,0.7,1.4,1.2,1.8l0,0l4.7,4.1L34.9,13.9z"/><path fill="#f55376" d="M32.1,13.9L32.1,13.9c-0.2-0.7-0.2-1.5,0.1-2.2c0.7-2,2.8-3.1,4.8-2.4c2,0.7,3.1,2.9,2.4,4.9 c-0.2,0.7-0.7,1.3-1.2,1.8l0,0L33.5,20L32.1,13.9z"/><path fill="#eb0000" d="M33.5,20l1.4-6.1l0,0c0.2-0.7,0.2-1.5-0.1-2.2c-0.2-0.8-0.7-1.4-1.3-1.9c-0.6,0.5-1,1.1-1.3,1.9 c-0.2,0.7-0.2,1.5-0.1,2.2l0,0L33.5,20z"/><rect width="17" height="17" x="6" y="6" fill="#3dd9eb"/><polygon fill="#6c19ff" points="6,17.1 6,23 20.9,23 11.2,10"/><g><polygon fill="#6c19ff" points="17.1,13.4 10,22.9 10,23 23,23 23,21.1"/></g><g><polygon fill="#2100c4" points="10,22.9 10,23 20.9,23 15.5,15.7"/></g></svg>