<svg xmlns="http://www.w3.org/2000/svg"  viewBox="0 0 48 48" width="48px" height="48px"><path fill="#6c19ff" d="M27,9c0,4.97-4.03,9-9,9s-9-4.03-9-9s4.03-9,9-9S27,4.03,27,9z"/><path fill="#f5bc00" d="M39,25.734C39,22.567,36.433,20,33.266,20H21V9c0-1.657-1.343-3-3-3s-3,1.343-3,3v19.217	l-2.741-3.883c-0.99-1.402-2.929-1.736-4.331-0.747c-1.402,0.99-1.736,2.929-0.747,4.331l7.821,11.08L39,39V25.734z"/><rect width="6" height="24" x="24" y="30" fill="#3dd9eb" transform="rotate(-90 27 42)"/><rect width="3" height="24" x="25.5" y="28.5" fill="#00b3d7" transform="rotate(-90 27 40.5)"/><path fill="#eb7900" d="M18,6c-1.657,0-3,1.343-3,3v8.487C15.938,17.819,16.948,18,18,18s2.062-0.181,3-0.513V9 C21,7.343,19.657,6,18,6z"/></svg>