<svg xmlns="http://www.w3.org/2000/svg"  viewBox="0 0 48 48" width="48px" height="48px"><polygon fill="#3dd9eb" points="39,44 9,44 9,4 39,4 39,12.6"/><polygon fill="#6c19ff" points="39,11 39,4 32,4"/><polygon fill="#7debf5" points="32,11 39,11 32,4"/><path fill="#00b3d7" d="M14,22h14v3H14V22z"/><path fill="#00b3d7" d="M31,22h3v3h-3V22z"/><path fill="#00b3d7" d="M14,28h14v3H14V28z"/><path fill="#00b3d7" d="M31,28h3v3h-3V28z"/><path fill="#00b3d7" d="M14,34h14v3H14V34z"/><path fill="#00b3d7" d="M31,34h3v3h-3V34z"/><path fill="#00b3d7" d="M34,18H14v-4h20V18z"/></svg>