<svg xmlns="http://www.w3.org/2000/svg"  viewBox="0 0 48 48" width="48px" height="48px"><polygon fill="#3dd9eb" points="39,44 9,44 9,4 39,4 39,12.6"/><polygon fill="#6c19ff" points="39,11 39,4 32,4"/><polygon fill="#7debf5" points="32,11 39,11 32,4"/><path fill="#00b3d7" d="M34,25H20v-3h14V25z"/><path fill="#00b3d7" d="M17,25h-3v-3h3V25z"/><path fill="#00b3d7" d="M34,31H20v-3h14V31z"/><path fill="#00b3d7" d="M17,31h-3v-3h3V31z"/><path fill="#00b3d7" d="M34,37H20v-3h14V37z"/><path fill="#00b3d7" d="M17,37h-3v-3h3V37z"/><path fill="#00b3d7" d="M34,18H14v-4h20V18z"/></svg>