<svg xmlns="http://www.w3.org/2000/svg"  viewBox="0 0 48 48" width="48px" height="48px"><path fill="#f55376" d="M44,24c0,11.045-8.955,20-20,20S4,35.045,4,24S12.955,4,24,4S44,12.955,44,24z"/><path fill="#f5bc00" d="M36.2,24.4c-0.883-0.662-2.136-0.483-2.8,0.4L30,29.333V13.5c0-0.829-0.671-1.5-1.5-1.5	S27,12.671,27,13.5V23h-1V11.5c0-0.829-0.671-1.5-1.5-1.5S23,10.671,23,11.5V23h-1V12.5c0-0.829-0.671-1.5-1.5-1.5	S19,11.671,19,12.5V23h-1v-7.5c0-0.829-0.671-1.5-1.5-1.5S15,14.671,15,15.5V33c0,1.657,1.343,3,3,3h9.5c1.565,0,3.061-0.748,4-2	l5.1-6.8C37.263,26.316,37.083,25.063,36.2,24.4z"/></svg>