<svg xmlns="http://www.w3.org/2000/svg"  viewBox="0 0 48 48" width="48px" height="48px"><rect width="6" height="5.2" x="14" y="20" fill="#3dd9eb"/><rect width="6" height="5.2" x="14" y="40.8" fill="#3dd9eb"/><rect width="6" height="5.2" x="24.4" y="30.4" fill="#3dd9eb" transform="rotate(90 27.4 33)"/><rect width="6" height="5.2" x="3.6" y="30.4" fill="#3dd9eb" transform="rotate(90 6.6 33)"/><rect width="6" height="5.2" x="21.354" y="23.046" fill="#3dd9eb" transform="rotate(45.001 24.354 25.646)"/><rect width="6" height="5.2" x="6.646" y="37.754" fill="#3dd9eb" transform="rotate(45.001 9.647 40.354)"/><rect width="6" height="5.2" x="21.354" y="37.754" fill="#3dd9eb" transform="rotate(134.999 24.354 40.354)"/><rect width="6" height="5.2" x="6.646" y="23.046" fill="#3dd9eb" transform="rotate(134.999 9.646 25.646)"/><circle cx="17" cy="33" r="11" fill="#3dd9eb"/><circle cx="17" cy="33" r="9" fill="#7debf5"/><circle cx="33.517" cy="12.483" r="8.483" fill="#6c19ff"/><circle cx="33.517" cy="12.483" r="5.483" fill="#2100c4"/><rect width="5" height="4" x="31" y="2" fill="#6c19ff"/><rect width="5" height="4" x="31" y="19" fill="#6c19ff"/><rect width="5" height="4" x="39.5" y="10.5" fill="#6c19ff" transform="rotate(90 42 12.5)"/><rect width="5" height="4" x="22.5" y="10.5" fill="#6c19ff" transform="rotate(90 25 12.5)"/><g><rect width="5" height="4" x="37.01" y="16.51" fill="#6c19ff" transform="rotate(134.999 39.51 18.51)"/><rect width="5" height="4" x="24.99" y="4.49" fill="#6c19ff" transform="rotate(134.999 27.49 6.49)"/></g><g><rect width="5" height="4" x="37.01" y="4.49" fill="#6c19ff" transform="rotate(45.001 39.51 6.49)"/><rect width="5" height="4" x="24.99" y="16.51" fill="#6c19ff" transform="rotate(45.001 27.49 18.51)"/></g><g><circle cx="17" cy="33" r="6" fill="#3dd9eb"/></g><g><polygon fill="#3dd9eb" points="25.5,36.571 19,31.966 19,24 15,24 15,31.966 8.5,36.571 10.813,39.835 17,35.451 23.187,39.835"/></g><g><path fill="#00b3d7" d="M19,31.966v-4.624C18.374,27.121,17.701,27,17,27s-1.374,0.121-2,0.342v4.624l-3.773,2.674 c0.379,1.336,1.208,2.481,2.314,3.263L17,35.451l3.46,2.451c1.105-0.782,1.935-1.927,2.314-3.263L19,31.966z"/></g></svg>