<svg xmlns="http://www.w3.org/2000/svg"  viewBox="0 0 48 48" width="48px" height="48px"><circle cx="24" cy="24" r="20" fill="#3dd9eb"/><rect width="8.001" height="4" x="34" y="8" fill="#f5bc00" transform="rotate(-45.001 38 10)"/><rect width="4" height="8.001" x="8" y="6" fill="#f5bc00" transform="rotate(-45.001 10 10)"/><path fill="#00b3d7" d="M36.655,8.517l-2.898,2.898l2.828,2.828l2.898-2.898C38.637,10.311,37.689,9.363,36.655,8.517z"/><path fill="#00b3d7" d="M8.517,11.345l2.898,2.898l2.828-2.828l-2.898-2.898C10.311,9.363,9.363,10.311,8.517,11.345z"/><circle cx="24" cy="24" r="17" fill="#c2ffff"/><path fill="#3dd9eb" d="M24,24V7c-4.694,0-8.944,1.903-12.021,4.979L24,24z"/><rect width="11" height="4" x="18.5" fill="#f5bc00"/><path fill="#00b3d7" d="M25.692,20.884c1.202,1.141,1.251,3.04,0.11,4.241c-1.141,1.202-3.04,1.251-4.241,0.11 C20.359,24.095,13,13,13,13S24.49,19.743,25.692,20.884z"/></svg>