<svg xmlns="http://www.w3.org/2000/svg"  viewBox="0 0 48 48" width="48px" height="48px"><rect width="36" height="4" x="6" y="40" fill="#6c19ff"/><rect width="6" height="6.4" x="21" y="29.6" fill="#f55376"/><rect width="6" height="6.4" x="30.051" y="25.851" fill="#f55376" transform="rotate(-45.001 33.05 29.051)"/><rect width="6.4" height="6" x="33.6" y="17" fill="#f55376"/><rect width="6.4" height="6" x="29.851" y="7.949" fill="#f55376" transform="rotate(-45.001 33.051 10.95)"/><rect width="6" height="6.4" x="21" y="4" fill="#f55376"/><rect width="6" height="6.4" x="11.949" y="7.749" fill="#f55376" transform="rotate(-45.001 14.949 10.95)"/><rect width="6.4" height="6" x="8" y="17" fill="#f55376"/><rect width="6.4" height="6" x="11.749" y="26.051" fill="#f55376" transform="rotate(-45.001 14.949 29.051)"/><circle cx="24" cy="20" r="13.25" fill="#f55376"/><circle cx="24" cy="20" r="10" fill="#eb0000"/><polygon fill="#fac8d5" points="22,18 22,26 26,26 26,18"/><polygon fill="#fac8d5" points="29,20 24,13.125 19,20"/><rect width="4" height="2" x="22" y="18" fill="#fff" transform="rotate(-180 24 19)"/></svg>