<svg xmlns="http://www.w3.org/2000/svg"  viewBox="0 0 48 48" width="48px" height="48px"><path fill="#6c19ff" d="M47.989,35H29v-4h18.989V35z"/><path fill="#f55376" d="M33.613,40.847H0l1.437-5.561c0.701-4.438,4.526-7.707,9.02-7.707h12.699 c4.493,0,8.319,3.269,9.02,7.707L33.613,40.847z"/><path fill="#eb0000" d="M29,31v4h3.117c-0.287-1.505-0.931-2.866-1.841-4H29z"/><path fill="#6c19ff" d="M47.989,27H29v-4h18.989V27z"/><path fill="#6c19ff" d="M48.208,19H29v-4h19.208V19z"/><path fill="#fac8d5" d="M16.806,29.348L16.806,29.348c-4.542,0-8.368-3.394-8.909-7.904l-0.44-3.67 c-0.673-5.605,3.704-10.539,9.35-10.539h0c5.646,0,10.022,4.933,9.35,10.539l-0.44,3.67C25.174,25.954,21.349,29.348,16.806,29.348 z"/><circle cx="26.536" cy="8.423" r="4.423" fill="#f55376"/><path fill="#f55376" d="M16.806,7.235c-0.636,0-1.252,0.071-1.851,0.19c-0.002,0.085-0.013,0.167-0.013,0.252 c0,5.182,4.2,9.382,9.382,9.382c0.647,0,1.28-0.066,1.89-0.191C26.343,11.648,22.145,7.235,16.806,7.235z"/><path fill="#fac8d5" d="M25.651,22.503H7.961c-1.104,0-2-0.896-2-2s0.896-2,2-2h17.69c1.104,0,2,0.896,2,2 S26.756,22.503,25.651,22.503z"/></svg>