<svg xmlns="http://www.w3.org/2000/svg"  viewBox="0 0 48 48" width="48px" height="48px"><path fill="#f55376" d="M44,24c0,0-11-17-23-17C11.611,7,4,14.611,4,24s7.611,17,17,17C33,41,44,24,44,24z"/><path fill="#6c19ff" d="M31,33l-0.464-2.34c-0.457-3.259-2.955-5.66-5.89-5.66h-8.293c-2.934,0-5.433,2.401-5.89,5.66L10,33	H31z"/><path fill="#ddbaff" d="M20.499,27L20.499,27c-3.014,0-5.553-2.246-5.912-5.231l-0.292-2.794	C13.849,15.265,16.753,12,20.5,12l0,0c3.747,0,6.651,3.265,6.205,6.975l-0.292,2.794C26.053,24.754,23.514,27,20.499,27z"/><path fill="#ddbaff" d="M25.977,22H15.023c-0.841,0-1.523-0.671-1.523-1.5s0.682-1.5,1.523-1.5h10.954	c0.841,0,1.523,0.671,1.523,1.5S26.819,22,25.977,22z"/></svg>