<svg xmlns="http://www.w3.org/2000/svg"  viewBox="0 0 48 48" width="48px" height="48px"><path fill="#f55376" d="M48,35.043H29.011v-4H48V35.043z"/><path fill="#6c19ff" d="M34,41H0.001l1.454-5.449C2.164,31.203,6.032,28,10.578,28h12.845c4.545,0,8.415,3.203,9.124,7.551	L34,41z"/><path fill="#f55376" d="M47.989,27H29v-4h18.989V27z"/><path fill="#f55376" d="M48.208,19H29v-4h19.208V19z"/><path fill="#ddbaff" d="M26.5,16.51c0,0.38-0.02,0.76-0.07,1.15l-0.44,3.71c-0.55,4.57-4.42,8-9.02,8	c-4.59,0-8.46-3.43-9.01-8l-0.44-3.71c-0.48-3.97,1.55-7.61,4.77-9.43C13.67,7.45,15.26,7,16.97,7c1.7,0,3.29,0.44,4.67,1.22	C24.56,9.86,26.5,12.99,26.5,16.51z"/><path fill="#ddbaff" d="M26,22.5H7.992c-1.117,0-2.023-0.889-2.023-1.985C5.969,19.419,6.883,18.5,8,18.5h18	c1.117,0,2,0.866,2,1.962S27.118,22.5,26,22.5z"/><path fill="#6c19ff" d="M21.64,8.22c-0.44,2.17-2.37,3.8-4.67,3.8c-2.3,0-4.23-1.62-4.68-3.79C13.67,7.45,15.26,7,16.97,7	C18.67,7,20.26,7.44,21.64,8.22z"/><path fill="#2100c4" d="M29.011,31.043v4h3.275c-0.294-1.503-0.94-2.865-1.851-4H29.011z"/></svg>