<svg xmlns="http://www.w3.org/2000/svg"  viewBox="0 0 48 48" width="48px" height="48px"><path fill="#3ddab4" d="M24,44L24,44c-4.296,0-7.778-3.482-7.778-7.778V11.778C16.222,7.482,19.704,4,24,4h0 c4.296,0,7.778,3.482,7.778,7.778v24.444C31.778,40.518,28.296,44,24,44z"/><path fill="#3ddab4" d="M9.858,38.142L9.858,38.142c-3.038-3.038-3.038-7.962,0-11L27.142,9.858 c3.038-3.038,7.962-3.038,11,0l0,0c3.038,3.038,3.038,7.962,0,11L20.858,38.142C17.82,41.18,12.895,41.18,9.858,38.142z"/><path fill="#3ddab4" d="M4,24L4,24c0-4.296,3.482-7.778,7.778-7.778h24.444C40.518,16.222,44,19.704,44,24v0 c0,4.296-3.482,7.778-7.778,7.778H11.778C7.482,31.778,4,28.296,4,24z"/><path fill="#3ddab4" d="M9.858,9.858L9.858,9.858c3.038-3.038,7.962-3.038,11,0l17.284,17.284c3.038,3.038,3.038,7.962,0,11 l0,0c-3.038,3.038-7.962,3.038-11,0L9.858,20.858C6.82,17.82,6.82,12.895,9.858,9.858z"/><polygon fill="#c1f5ea" points="38.156,17.515 34.081,13.604 22.819,25.247 18.245,20.933 14.334,25.009 22.018,32.255 22.986,33.179 22.991,33.173 22.997,33.179 26.925,29.119 26.921,29.116"/><polygon fill="#fff" points="26.921,29.116 22.819,25.247 18.909,29.289 22.018,32.255 22.991,33.173"/></svg>