<svg xmlns="http://www.w3.org/2000/svg"  viewBox="0 0 48 48" width="48px" height="48px"><path fill="#6c19ff" d="M43,43H5l1.625-6.285C7.414,31.695,11.742,28,16.82,28H31.18c5.078,0,9.402,3.695,10.195,8.715 L43,43z"/><polygon fill="#2100c4" points="24,33.31 18.702,28.021 29.298,28.021"/><polygon fill="#2100c4" points="24,33.098 19.514,43 28.486,43"/><path fill="#ddbaff" d="M34,22H14c-1.105,0-2-0.895-2-2s0.895-2,2-2h20c1.105,0,2,0.895,2,2S35.105,22,34,22z"/><path fill="#ddbaff" d="M24,30c-5.137,0-9.461-3.836-10.07-8.938l-0.5-4.148C12.668,10.578,17.617,5,24,5 s11.332,5.578,10.57,11.914l-0.5,4.152C33.461,26.164,29.137,30,24,30z"/><path fill="#6c19ff" d="M24,5c-2.512,0-4.797,0.871-6.602,2.309C18.352,10.039,20.945,12,24,12s5.648-1.961,6.602-4.691 C28.797,5.871,26.512,5,24,5z"/><path fill="#f5bc00" d="M40,25v19l3,4l3-4V25H40z"/><path fill="#f55376" d="M40,25h6v3h-6V25z"/><path fill="#eb7900" d="M40,43h3l-1.625-6.285C41.16,35.352,40.68,34.094,40,32.977V43z"/></svg>