<svg xmlns="http://www.w3.org/2000/svg"  viewBox="0 0 48 48" width="48px" height="48px"><path fill="#a64aff" d="M45,6H3v36h42V6z"/><rect width="36" height="30" x="6" y="9" fill="#6c19ff"/><circle cx="20" cy="21" r="8" fill="#f5bc00"/><path fill="#3dd9eb" d="M37,27c0-4.4-3.6-8-8-8c-4.1,0-7.4,3-7.9,7c-0.7-0.4-1.5-0.6-2.3-0.6c-2.7,0-4.8,2.1-4.8,4.8 c0,2.5,2,4.6,4.5,4.8v0h10.9v0C33.6,34.8,37,31.3,37,27z"/><path fill="#00b3d7" d="M20,29c4.4,0,8-3.6,8-8c0-0.7-0.1-1.3-0.2-1.9c-3.5,0.5-6.2,3.4-6.7,6.9c-0.7-0.4-1.5-0.6-2.3-0.6 c-1.5,0-2.9,0.7-3.8,1.9C16.4,28.3,18.1,29,20,29z"/></svg>